<?xml version="1.0" encoding="UTF-8" standalone="no"?>
<svg
   version="1.1"
   viewBox="0 0 1400 900"
   id="svg28"
   sodipodi:docname="titlepage.svg"
   xmlns:inkscape="http://www.inkscape.org/namespaces/inkscape"
   xmlns:sodipodi="http://sodipodi.sourceforge.net/DTD/sodipodi-0.dtd"
   xmlns="http://www.w3.org/2000/svg"
   xmlns:svg="http://www.w3.org/2000/svg">
  <defs
     id="defs32" />
  <sodipodi:namedview
     id="namedview30"
     pagecolor="#ffffff"
     bordercolor="#000000"
     borderopacity="0.25"
     inkscape:showpageshadow="2"
     inkscape:pageopacity="0.0"
     inkscape:pagecheckerboard="0"
     inkscape:deskcolor="#d1d1d1" />
  <title
     id="title2">The titlepage for the Standard Ebooks edition of Gai Ge LI Cheng, by Ziyang Zhao</title>
  <style
     type="text/css"
     id="style4">
		text{
			font-family: &quot;Source Han Sans HC&quot;;
			letter-spacing: 5px;
			text-anchor: middle;
		}

		.title{
			font-size: 150px;
		}

		.author{
			font-size: 105px;
		}

		.title-en{
			font-family: &quot;League Spartan&quot;;
			/* font-variant: small-caps; */
			font-size: 45px;
		}

		.contributor{
			font-size: 50px;
		}
	</style>
  <g
     aria-label="改革歷程"
     id="text6"
     class="title"
     style="font-size:150px;font-family:'Source Han Sans HC';letter-spacing:5px;text-anchor:middle">
    <path
       d="m 482.8,72.25 h 30.9 c -3.15,19.65 -7.95,36.3 -15.3,50.1 -7.35,-14.1 -12.6,-30.6 -16.2,-48.45 z M 403.9,44.5 v 11.1 h 42.15 v 31.8 h -40.2 v 57.15 c 0,5.55 -2.4,7.5 -4.65,8.55 1.95,2.85 3.75,8.4 4.5,11.7 3.45,-2.85 9,-5.7 52.65,-22.35 -0.45,-2.55 -1.2,-7.35 -1.35,-10.65 l -39.75,14.25 V 98.5 h 39.6 l -0.75,0.9 c 2.4,1.8 6.9,6.15 8.7,8.1 3.9,-5.25 7.5,-11.25 10.65,-17.85 4.2,16.05 9.45,30.75 16.35,43.2 -9,12.6 -21,22.35 -36.9,29.55 2.25,2.4 5.55,7.5 6.75,10.2 15.3,-7.65 27.3,-17.25 36.75,-29.25 8.25,11.85 18.6,21.45 31.35,27.9 1.8,-3 5.25,-7.2 7.95,-9.45 -13.35,-6.15 -24,-15.9 -32.55,-28.35 9.9,-16.35 16.2,-36.45 20.25,-61.2 h 9.9 v -10.5 h -48.9 c 2.55,-8.25 4.8,-16.95 6.6,-25.8 L 481.9,34 C 477.25,58.6 469,82.45 457.15,98.05 V 44.5 Z"
       id="path34" />
    <path
       d="m 572.1,88.75 v 36.3 h 44.55 v 12.9 H 555.3 v 10.35 h 61.35 V 172 h 11.55 v -23.7 h 61.65 V 137.95 H 628.2 v -12.9 h 45.9 V 88.75 H 628.2 V 78.4 h 28.2 V 56.8 h 30.9 v -9.75 h -30.9 v -13.2 h -11.7 v 13.2 H 600 v -13.2 h -10.95 v 13.2 H 558 v 9.75 h 31.05 v 21.6 h 27.6 v 10.35 z m 11.25,9.3 h 33.3 v 17.85 h -33.3 z m 44.85,0 h 34.05 V 115.9 H 628.2 Z M 644.7,56.8 V 69.55 H 600 V 56.8 Z"
       id="path36" />
    <path
       d="m 720.8,41.2 v 44.4 c 0,23.7 -1.05,57 -13.2,80.7 2.7,1.05 7.35,3.75 9.45,5.4 9.3,-18 12.75,-42 13.95,-63.45 0.45,-8.1 0.6,-15.75 0.6,-22.65 V 51.4 H 844.1 V 41.2 Z m 28.2,85.2 v 31.8 h -19.2 v 9.6 h 114.75 v -9.6 H 793.4 v -18.45 h 36.75 V 130.6 H 793.4 v -15 h -10.95 v 42.6 H 759.8 V 126.4 Z M 772.85,55 c -7.8,3.45 -23.25,6 -36.3,7.35 1.05,1.95 2.25,5.1 2.7,6.9 5.25,-0.45 10.8,-1.05 16.35,-1.95 v 10.8 h -19.5 v 8.4 h 15.45 c -5.25,8.7 -13.05,17.25 -20.55,21.75 2.1,1.65 4.95,4.65 6.45,7.05 6.3,-4.8 13.05,-12.75 18.15,-21.15 v 21.75 h 9.45 V 96.25 c 4.35,3.75 9.15,8.25 11.25,10.5 l 5.85,-7.2 c -2.7,-2.25 -13.2,-9.75 -17.1,-12.3 V 86.5 h 17.7 v -8.4 h -17.7 V 65.65 C 770.9,64.3 776.3,62.8 780.65,61 Z m 54.3,-0.3 c -8.55,3.45 -25.35,6 -39.6,7.35 1.05,1.8 2.4,4.95 2.7,6.9 C 795.8,68.5 801.8,67.9 807.8,67 v 11.1 h -20.55 v 8.4 h 14.4 c -5.55,8.7 -14.25,17.25 -22.2,21.75 2.1,1.65 4.95,4.8 6.45,7.05 7.8,-5.4 16.2,-14.85 21.9,-24.75 v 25.35 h 9.6 V 96.55 c 7.2,5.55 17.55,14.1 21.6,18 l 5.4,-7.65 c -4.2,-3.3 -21.9,-16.2 -27,-19.35 V 86.5 H 842 V 78.1 H 817.4 V 65.5 c 6.6,-1.35 12.6,-2.85 17.55,-4.8 z"
       id="path38" />
    <path
       d="M 935.8,51.4 H 982 v 28.2 h -46.2 z m -10.5,-9.75 v 47.7 h 67.5 V 41.65 Z M 988,94.9 c -15.45,4.5 -43.95,7.35 -67.5,8.85 1.2,2.4 2.4,6.3 2.7,8.7 9.45,-0.45 19.8,-1.05 29.85,-2.1 v 17.85 h -29.4 v 9.75 h 29.4 V 158.2 H 915.4 v 10.05 h 85.5 V 158.2 H 964.15 V 137.95 H 994.6 V 128.2 H 964.15 V 109 c 11.7,-1.35 22.65,-3.3 31.35,-5.7 z M 912.1,36.1 c -11.1,5.1 -31.05,9.45 -48.15,12.3 1.2,2.4 2.85,6.15 3.3,8.55 7.05,-0.9 14.55,-2.1 22.05,-3.6 V 76.3 h -24.45 v 10.5 h 22.95 c -6,17.25 -16.35,36.75 -26.1,47.4 1.95,2.7 4.65,7.2 5.85,10.35 7.65,-9.3 15.6,-24.15 21.75,-39.3 v 66.45 h 11.1 v -64.65 c 5.1,6.3 11.1,14.4 13.65,18.6 l 6.75,-8.85 c -3,-3.45 -16.05,-16.95 -20.4,-20.7 v -9.3 h 18.75 V 76.3 H 900.4 V 50.95 c 7.2,-1.8 13.95,-3.9 19.65,-6.15 z"
       id="path40" />
  </g>
  <g
     aria-label="趙紫陽"
     id="text8"
     class="author"
     style="font-size:105px;font-family:'Source Han Sans HC';letter-spacing:5px;text-anchor:middle">
    <path
       d="m 589.265,277.155 c 3.15,5.355 6.09,12.495 6.93,17.22 l 6.405,-2.1 c -1.05,-4.83 -3.99,-11.865 -7.56,-17.01 z m 39.9,-1.995 c -1.785,5.355 -5.355,13.125 -8.19,17.955 l 5.985,1.89 c 2.835,-4.62 6.195,-11.55 9.03,-17.745 z m -30.555,43.155 h 26.67 v 9.45 h -26.67 z m 0,-5.775 v -9.135 h 26.67 v 9.135 z m -7.245,-15.435 v 55.23 h 7.245 v -18.69 h 26.67 v 10.29 c 0,1.26 -0.315,1.68 -1.68,1.68 -1.26,0.105 -5.46,0.105 -10.185,-0.105 1.05,1.995 1.995,4.83 2.31,6.825 6.3,0 10.815,0 13.44,-1.26 2.835,-1.155 3.57,-3.15 3.57,-7.14 v -46.83 h -17.22 V 271.8 h -7.245 v 25.305 z m -42.735,22.26 c -0.315,18.48 -1.365,34.755 -8.085,44.94 1.575,1.05 4.62,3.36 5.67,4.515 3.78,-6.09 6.09,-13.755 7.455,-22.575 9.135,16.695 24.36,19.74 46.83,19.74 h 35.28 c 0.525,-2.31 1.89,-5.88 3.15,-7.665 -6.09,0.21 -33.495,0.21 -38.325,0.21 -11.865,0 -21.735,-0.84 -29.505,-4.41 v -20.475 h 15.75 V 326.61 H 571.1 v -14.805 h 16.59 v -7.035 h -17.325 v -12.915 h 15.015 v -6.93 h -15.015 v -13.02 h -7.35 v 13.02 H 546.32 v 6.93 h 16.695 V 304.77 H 542.96 v 7.035 h 20.895 v 37.38 c -3.675,-3.36 -6.615,-7.98 -8.925,-14.175 0.42,-4.83 0.63,-9.87 0.735,-15.225 z"
       id="path43" />
    <path
       d="m 713.44,350.34 c 8.61,4.41 19.74,11.445 25.62,15.96 l 6.405,-4.41 c -5.985,-4.2 -17.01,-10.815 -25.515,-15.33 z m -36.225,-2.835 c -5.985,5.355 -15.54,10.71 -24.15,14.28 1.785,1.155 4.62,3.675 5.985,5.04 8.4,-3.99 18.48,-10.29 25.095,-16.59 z m -10.08,-17.22 c 1.995,-0.84 5.04,-1.365 25.935,-3.15 -8.505,4.2 -15.645,7.245 -19.11,8.505 -6.09,2.52 -10.5,3.99 -13.965,4.305 0.84,1.995 1.89,5.67 2.205,7.245 2.835,-1.05 6.825,-1.47 34.86,-3.57 v 16.275 c 0,1.26 -0.315,1.575 -1.995,1.68 -1.575,0.105 -6.93,0.105 -13.125,-0.105 1.155,1.995 2.415,4.83 2.835,6.93 7.665,0 12.705,-0.105 15.96,-1.155 3.36,-1.155 4.2,-3.045 4.2,-7.14 v -17.01 l 26.565,-1.89 c 3.255,3.045 5.985,5.985 7.875,8.4 l 6.825,-3.36 c -4.935,-6.09 -15.015,-14.805 -23.31,-20.79 l -6.405,3.045 c 2.835,2.1 5.88,4.62 8.82,7.14 l -41.79,2.52 c 13.545,-5.355 27.195,-12.075 40.53,-20.265 l -5.355,-5.355 c -4.095,2.73 -8.505,5.46 -12.915,7.875 l -21.84,1.68 c 6.3,-2.94 12.705,-6.51 18.69,-10.5 l -5.775,-4.41 c -8.61,6.51 -20.055,12.18 -23.625,13.65 -3.255,1.47 -5.88,2.31 -8.19,2.625 0.84,1.89 1.785,5.355 2.1,6.825 z m -8.085,-50.82 v 25.725 l -7.245,0.84 0.84,7.245 c 12.6,-1.89 30.87,-4.515 48.195,-7.14 l -0.21,-6.405 -16.59,2.205 v -12.18 h 16.38 v -6.51 H 684.04 V 271.8 h -7.665 v 31.185 l -10.185,1.26 v -24.78 z m 78.855,-1.26 c -5.88,3.15 -15.855,6.405 -25.41,8.925 V 271.8 h -7.665 v 27.825 c 0,8.085 2.52,10.185 12.81,10.185 2.205,0 16.275,0 18.69,0 7.875,0 10.29,-2.835 11.235,-13.755 -2.205,-0.42 -5.25,-1.575 -7.035,-2.625 -0.315,8.295 -1.155,9.66 -4.935,9.66 -3.15,0 -15.015,0 -17.22,0 -5.04,0 -5.88,-0.525 -5.88,-3.57 v -5.88 c 10.815,-2.52 22.89,-5.985 31.5,-9.765 z"
       id="path45" />
    <path
       d="m 811.47,295.74 h 30.765 v 8.4 H 811.47 Z m 0,-13.755 h 30.765 v 8.085 H 811.47 Z M 804.225,276 v 34.125 H 849.9 V 276 Z m -9.24,40.425 v 6.51 h 13.86 c -4.2,8.82 -10.815,16.275 -18.585,21.315 1.47,1.26 4.095,3.675 5.145,5.04 4.515,-3.36 8.925,-7.56 12.705,-12.495 h 8.82 c -5.25,9.975 -13.545,18.69 -22.575,24.465 1.47,1.155 3.78,3.78 4.725,5.145 9.87,-7.035 19.32,-17.535 25.095,-29.61 h 8.925 c -3.78,10.92 -10.29,20.475 -18.375,26.775 1.575,1.05 4.095,3.465 5.25,4.515 8.61,-7.35 15.855,-18.48 20.16,-31.29 h 7.035 c -0.945,16.065 -2.31,22.365 -3.885,24.15 -0.735,0.84 -1.575,1.05 -2.94,1.05 -1.365,0 -4.515,-0.105 -8.085,-0.42 0.945,1.785 1.68,4.62 1.89,6.615 3.675,0.315 7.455,0.21 9.555,0 2.415,-0.21 4.095,-0.84 5.67,-2.625 2.52,-2.94 3.99,-10.815 5.25,-32.025 0.105,-1.05 0.315,-3.15 0.315,-3.15 h -42.525 c 1.47,-2.415 2.73,-4.83 3.885,-7.455 h 42.105 v -6.51 z m -28.98,-40.11 V 368.4 h 7.035 v -84.945 h 13.755 c -2.205,7.14 -5.355,16.695 -8.4,24.36 7.56,8.19 9.555,15.225 9.555,21 0,3.15 -0.63,5.985 -2.205,7.14 -0.84,0.63 -1.995,0.84 -3.36,0.945 -1.68,0.105 -3.675,0 -6.09,-0.105 1.155,1.995 1.89,5.04 1.995,6.93 2.31,0.105 4.935,0 7.035,-0.21 2.205,-0.21 3.99,-0.84 5.46,-1.89 2.94,-1.995 4.2,-6.405 4.2,-12.075 0,-6.51 -1.785,-13.965 -9.45,-22.68 3.57,-8.4 7.455,-19.11 10.5,-27.825 L 790.89,276 l -1.155,0.315 z"
       id="path47" />
  </g>
  <path
     id="line10"
     style="stroke:#0000ff;stroke-width:7"
     d="M 267,460 H 700" />
  <path
     id="line12"
     style="stroke:#ffff00;stroke-width:7"
     d="m 700,460 h 433" />
  <g
     aria-label="The Secrect Journal Of Zhao Ziyang"
     id="text14"
     class="title-en"
     style="font-size:45px;font-family:'League Spartan';letter-spacing:5px;text-anchor:middle">
    <path
       d="m 293.87124,503.7875 h -8.01 V 500.3 h 19.89 v 3.4875 h -8.01 V 530 h -3.87 z"
       id="path52" />
    <path
       d="m 325.3312,510.9875 q 1.8225,0 3.5325,0.765 1.7325,0.765 2.835,2.43 1.125,1.6425 1.125,4.2975 V 530 h -3.96 v -10.755 q 0,-2.745 -1.26,-3.9825 -1.2375,-1.26 -3.2625,-1.26 -1.35,0 -2.5875,0.765 -1.2375,0.7425 -2.0475,2.07 -0.7875,1.305 -0.7875,2.97 V 530 h -3.96 v -30.96 h 3.96 v 15.7725 q 0.2025,-0.765 1.08,-1.665 0.9,-0.9 2.295,-1.53 1.395,-0.63 3.0375,-0.63 z"
       id="path54" />
    <path
       d="m 345.56373,521.5625 q 0.0225,1.665 0.72,3.0375 0.6975,1.3725 2.07,2.1825 1.395,0.81 3.42,0.81 1.71,0 2.9025,-0.495 1.215,-0.5175 1.98,-1.215 0.765,-0.72 1.1025,-1.2825 l 1.9125,2.3625 q -0.7425,1.08 -1.8225,1.89 -1.0575,0.81 -2.5875,1.2375 -1.53,0.45 -3.735,0.45 -2.97,0 -5.1525,-1.26 -2.16,-1.2825 -3.33,-3.5325 -1.17,-2.2725 -1.17,-5.1975 0,-2.7 1.1025,-4.86 1.1025,-2.1825 3.195,-3.4425 2.115,-1.26 5.085,-1.26 2.7225,0 4.725,1.1475 2.025,1.125 3.1275,3.195 1.125,2.07 1.125,4.95 0,0.18 -0.0225,0.6525 -0.0225,0.45 -0.045,0.63 z m 10.935,-2.9475 q -0.0225,-0.9225 -0.54,-2.025 -0.495,-1.1025 -1.62,-1.89 -1.125,-0.7875 -3.0375,-0.7875 -1.98,0 -3.195,0.765 -1.1925,0.765 -1.755,1.8675 -0.5625,1.08 -0.6525,2.07 z"
       id="path56" />
    <path
       d="m 395.14122,499.76 q 2.565,0 4.41,0.585 1.8675,0.585 2.925,1.2375 1.08,0.6525 1.2825,0.855 l -1.98,3.1725 q -0.3375,-0.2925 -1.1925,-0.8325 -0.855,-0.5625 -2.1375,-0.99 -1.2825,-0.45 -2.925,-0.45 -2.5425,0 -4.0275,1.035 -1.4625,1.0125 -1.4625,2.88 0,1.26 0.765,2.2275 0.7875,0.945 2.205,1.7325 1.4175,0.7875 3.3075,1.62 1.5525,0.6525 3.0375,1.485 1.5075,0.8325 2.7225,1.9575 1.2375,1.125 1.9575,2.61 0.7425,1.485 0.7425,3.42 0,1.9125 -0.7875,3.4425 -0.765,1.53 -2.1825,2.61 -1.395,1.0575 -3.2625,1.62 -1.8675,0.5625 -4.0275,0.5625 -2.7225,0 -4.9275,-0.675 -2.1825,-0.675 -3.5325,-1.4175 -1.3275,-0.7425 -1.53,-0.9225 l 2.0925,-3.3075 q 0.27,0.225 0.99,0.675 0.72,0.4275 1.7775,0.9 1.0575,0.4725 2.385,0.81 1.3275,0.315 2.835,0.315 3.015,0 4.5675,-1.35 1.5525,-1.35 1.5525,-3.465 0,-1.62 -0.99,-2.79 -0.99,-1.17 -2.6325,-2.0925 -1.6425,-0.9225 -3.6225,-1.7775 -2.025,-0.9225 -3.7125,-2.025 -1.6875,-1.1025 -2.7225,-2.6325 -1.0125,-1.5525 -1.0125,-3.735 0,-2.16 1.215,-3.8025 1.2375,-1.6425 3.3075,-2.565 2.0925,-0.9225 4.59,-0.9225 z"
       id="path58" />
    <path
       d="m 416.99371,521.5625 q 0.0225,1.665 0.72,3.0375 0.6975,1.3725 2.07,2.1825 1.395,0.81 3.42,0.81 1.71,0 2.9025,-0.495 1.215,-0.5175 1.98,-1.215 0.765,-0.72 1.1025,-1.2825 l 1.9125,2.3625 q -0.7425,1.08 -1.8225,1.89 -1.0575,0.81 -2.5875,1.2375 -1.53,0.45 -3.735,0.45 -2.97,0 -5.1525,-1.26 -2.16,-1.2825 -3.33,-3.5325 -1.17,-2.2725 -1.17,-5.1975 0,-2.7 1.1025,-4.86 1.1025,-2.1825 3.195,-3.4425 2.115,-1.26 5.085,-1.26 2.7225,0 4.725,1.1475 2.025,1.125 3.1275,3.195 1.125,2.07 1.125,4.95 0,0.18 -0.0225,0.6525 -0.0225,0.45 -0.045,0.63 z m 10.935,-2.9475 q -0.0225,-0.9225 -0.54,-2.025 -0.495,-1.1025 -1.62,-1.89 -1.125,-0.7875 -3.0375,-0.7875 -1.98,0 -3.195,0.765 -1.1925,0.765 -1.755,1.8675 -0.5625,1.08 -0.6525,2.07 z"
       id="path60" />
    <path
       d="m 449.69119,527.3 q 1.755,0 2.835,-0.5625 1.08,-0.5625 1.35,-0.81 l 1.9125,2.8125 q -0.225,0.2025 -1.08,0.6525 -0.8325,0.4275 -2.16,0.7875 -1.305,0.36 -2.97,0.36 -2.5425,0 -4.725,-1.125 -2.1825,-1.1475 -3.5325,-3.33 -1.3275,-2.1825 -1.3275,-5.3325 0,-3.1725 1.3275,-5.3325 1.35,-2.1825 3.5325,-3.3075 2.1825,-1.125 4.725,-1.125 1.6425,0 2.925,0.405 1.2825,0.3825 2.115,0.855 0.8325,0.4725 1.1025,0.72 l -1.935,2.8125 q -0.18,-0.18 -0.6975,-0.54 -0.495,-0.3825 -1.35,-0.6975 -0.855,-0.315 -2.0475,-0.315 -1.44,0 -2.8125,0.7875 -1.35,0.765 -2.2275,2.2275 -0.8775,1.4625 -0.8775,3.51 0,2.0475 0.8775,3.5325 0.8775,1.4625 2.2275,2.25 1.3725,0.765 2.8125,0.765 z"
       id="path62" />
    <path
       d="m 468.50624,530 h -3.8925 v -18.4725 h 3.8925 v 3.195 h -0.1125 q 0.1125,-0.585 0.8325,-1.4625 0.72,-0.8775 1.98,-1.575 1.26,-0.6975 3.015,-0.6975 1.2825,0 2.25,0.36 0.99,0.3375 1.395,0.675 l -1.5975,3.24 q -0.315,-0.315 -1.1025,-0.63 -0.7875,-0.3375 -1.9575,-0.3375 -1.485,0 -2.5425,0.9225 -1.0575,0.9225 -1.62,2.2275 -0.54,1.2825 -0.54,2.385 z"
       id="path64" />
    <path
       d="m 487.43373,521.5625 q 0.0225,1.665 0.72,3.0375 0.6975,1.3725 2.07,2.1825 1.395,0.81 3.42,0.81 1.71,0 2.9025,-0.495 1.215,-0.5175 1.98,-1.215 0.765,-0.72 1.1025,-1.2825 l 1.9125,2.3625 q -0.7425,1.08 -1.8225,1.89 -1.0575,0.81 -2.5875,1.2375 -1.53,0.45 -3.735,0.45 -2.97,0 -5.1525,-1.26 -2.16,-1.2825 -3.33,-3.5325 -1.17,-2.2725 -1.17,-5.1975 0,-2.7 1.1025,-4.86 1.1025,-2.1825 3.195,-3.4425 2.115,-1.26 5.085,-1.26 2.7225,0 4.725,1.1475 2.025,1.125 3.1275,3.195 1.125,2.07 1.125,4.95 0,0.18 -0.0225,0.6525 -0.0225,0.45 -0.045,0.63 z m 10.935,-2.9475 q -0.0225,-0.9225 -0.54,-2.025 -0.495,-1.1025 -1.62,-1.89 -1.125,-0.7875 -3.0375,-0.7875 -1.98,0 -3.195,0.765 -1.1925,0.765 -1.755,1.8675 -0.5625,1.08 -0.6525,2.07 z"
       id="path66" />
    <path
       d="m 520.1312,527.3 q 1.755,0 2.835,-0.5625 1.08,-0.5625 1.35,-0.81 l 1.9125,2.8125 q -0.225,0.2025 -1.08,0.6525 -0.8325,0.4275 -2.16,0.7875 -1.305,0.36 -2.97,0.36 -2.5425,0 -4.725,-1.125 -2.1825,-1.1475 -3.5325,-3.33 -1.3275,-2.1825 -1.3275,-5.3325 0,-3.1725 1.3275,-5.3325 1.35,-2.1825 3.5325,-3.3075 2.1825,-1.125 4.725,-1.125 1.6425,0 2.925,0.405 1.2825,0.3825 2.115,0.855 0.8325,0.4725 1.1025,0.72 l -1.935,2.8125 q -0.18,-0.18 -0.6975,-0.54 -0.495,-0.3825 -1.35,-0.6975 -0.855,-0.315 -2.0475,-0.315 -1.44,0 -2.8125,0.7875 -1.35,0.765 -2.2275,2.2275 -0.8775,1.4625 -0.8775,3.51 0,2.0475 0.8775,3.5325 0.8775,1.4625 2.2275,2.25 1.3725,0.765 2.8125,0.765 z"
       id="path68" />
    <path
       d="m 533.34376,511.5275 h 3.6225 v -7.5825 h 3.8925 v 7.5825 h 4.7475 v 3.3525 h -4.7475 v 9.135 q 0,1.62 0.5625,2.385 0.585,0.765 1.5525,0.765 0.855,0 1.3275,-0.315 0.4725,-0.315 0.5625,-0.4275 l 1.5525,2.88 q -0.135,0.1125 -0.72,0.4275 -0.585,0.315 -1.5075,0.5625 -0.9225,0.2475 -2.16,0.2475 -2.16,0 -3.6225,-1.305 -1.44,-1.3275 -1.44,-4.185 v -10.17 h -3.6225 z"
       id="path70" />
    <path
       d="m 583.37126,520.9775 q 0,2.97 -0.9225,5.1075 -0.9225,2.1375 -2.7675,3.3075 -1.8225,1.1475 -4.545,1.1475 -2.1375,0 -3.6,-0.585 -1.4625,-0.585 -2.2725,-1.2825 -0.81,-0.72 -1.0125,-1.0575 l 1.6875,-3.3075 q 0.2475,0.405 0.7875,1.0125 0.54,0.585 1.5075,1.035 0.9675,0.45 2.43,0.45 1.7325,0 2.79,-0.7875 1.08,-0.81 1.575,-2.2275 0.495,-1.4175 0.495,-3.285 V 500.3 h 3.8475 z"
       id="path72" />
    <path
       d="m 602.09623,530.54 q -2.8575,0 -5.085,-1.2825 -2.205,-1.2825 -3.465,-3.465 -1.26,-2.205 -1.26,-4.9725 0,-2.7675 1.26,-4.995 1.26,-2.2275 3.465,-3.5325 2.2275,-1.305 5.085,-1.305 2.835,0 5.0175,1.305 2.205,1.305 3.4425,3.5325 1.2375,2.2275 1.2375,4.995 0,2.7675 -1.2375,4.9725 -1.2375,2.1825 -3.4425,3.465 -2.1825,1.2825 -5.0175,1.2825 z m 0,-3.3525 q 1.8,0 3.1275,-0.8325 1.35,-0.8325 2.0925,-2.2725 0.7425,-1.4625 0.7425,-3.285 0,-1.8225 -0.7425,-3.285 -0.7425,-1.4625 -2.0925,-2.3175 -1.3275,-0.855 -3.1275,-0.855 -1.8225,0 -3.1725,0.855 -1.35,0.855 -2.115,2.3175 -0.7425,1.4625 -0.7425,3.285 0,1.8225 0.7425,3.285 0.765,1.44 2.115,2.2725 1.35,0.8325 3.1725,0.8325 z"
       id="path74" />
    <path
       d="m 624.78121,520.8425 q 0,2.9025 1.2375,4.635 1.26,1.71 3.8475,1.71 2.61,0 3.8475,-1.71 1.2375,-1.7325 1.2375,-4.635 v -9.315 h 3.87 v 9.855 q 0,2.7 -1.0575,4.77 -1.035,2.07 -3.0375,3.24 -1.98,1.1475 -4.86,1.1475 -2.8575,0 -4.86,-1.1475 -1.98,-1.17 -3.0375,-3.24 -1.035,-2.07 -1.035,-4.77 v -9.855 h 3.8475 z"
       id="path76" />
    <path
       d="m 652.97869,530 h -3.8925 v -18.4725 h 3.8925 v 3.195 h -0.1125 q 0.1125,-0.585 0.8325,-1.4625 0.72,-0.8775 1.98,-1.575 1.26,-0.6975 3.015,-0.6975 1.2825,0 2.25,0.36 0.99,0.3375 1.395,0.675 l -1.5975,3.24 q -0.315,-0.315 -1.1025,-0.63 -0.7875,-0.3375 -1.9575,-0.3375 -1.485,0 -2.5425,0.9225 -1.0575,0.9225 -1.62,2.2275 -0.54,1.2825 -0.54,2.385 z"
       id="path78" />
    <path
       d="m 680.20869,510.9875 q 1.8225,0 3.5325,0.765 1.7325,0.765 2.835,2.43 1.125,1.6425 1.125,4.2975 V 530 h -3.96 v -10.755 q 0,-2.745 -1.2825,-3.9825 -1.2825,-1.26 -3.3075,-1.26 -1.3275,0 -2.565,0.765 -1.215,0.7425 -2.0025,2.07 -0.7875,1.305 -0.7875,2.97 V 530 h -3.915 v -18.4725 h 3.915 v 3.285 q 0.2025,-0.765 1.1025,-1.665 0.9,-0.9 2.295,-1.53 1.395,-0.63 3.015,-0.63 z"
       id="path80" />
    <path
       d="m 712.68121,530 v -3.6 q -0.18,0.5625 -1.0575,1.5525 -0.855,0.99 -2.3625,1.8 -1.485,0.7875 -3.51,0.7875 -2.565,0 -4.6575,-1.215 -2.07,-1.215 -3.3075,-3.3975 -1.215,-2.205 -1.215,-5.1525 0,-2.9475 1.215,-5.13 1.2375,-2.205 3.3075,-3.42 2.0925,-1.2375 4.6575,-1.2375 2.0025,0 3.465,0.72 1.485,0.72 2.3625,1.665 0.9,0.945 1.0575,1.62 v -3.465 h 3.87 V 530 Z m -12.24,-9.225 q 0,2.0025 0.8775,3.465 0.8775,1.4625 2.2725,2.2725 1.4175,0.7875 3.015,0.7875 1.71,0 3.06,-0.81 1.35,-0.81 2.1375,-2.2725 0.7875,-1.485 0.7875,-3.4425 0,-1.9575 -0.7875,-3.42 -0.7875,-1.485 -2.1375,-2.295 -1.35,-0.8325 -3.06,-0.8325 -1.5975,0 -3.015,0.81 -1.395,0.81 -2.2725,2.2725 -0.8775,1.4625 -0.8775,3.465 z"
       id="path82" />
    <path
       d="m 730.82119,530 h -3.9375 v -30.96 h 3.9375 z"
       id="path84" />
    <path
       d="m 760.3062,515.1275 q 0,3.3075 1.3725,5.9625 1.395,2.655 3.825,4.23 2.43,1.5525 5.58,1.5525 3.1725,0 5.58,-1.5525 2.43,-1.575 3.8025,-4.23 1.3725,-2.655 1.3725,-5.9625 0,-3.3075 -1.3725,-5.94 -1.3725,-2.655 -3.8025,-4.2075 -2.4075,-1.5525 -5.58,-1.5525 -3.15,0 -5.58,1.5525 -2.43,1.5525 -3.825,4.2075 -1.3725,2.6325 -1.3725,5.94 z m -3.9825,0 q 0,-3.24 1.1025,-6.03 1.125,-2.8125 3.1275,-4.905 2.0025,-2.0925 4.68,-3.2625 2.7,-1.17 5.85,-1.17 3.1725,0 5.85,1.17 2.7,1.17 4.68,3.2625 2.0025,2.0925 3.105,4.905 1.1025,2.79 1.1025,6.03 0,3.2625 -1.1025,6.075 -1.08,2.79 -3.0825,4.905 -1.98,2.0925 -4.6575,3.2625 -2.6775,1.17 -5.895,1.17 -3.2175,0 -5.94,-1.17 -2.7,-1.17 -4.68,-3.2625 -1.98,-2.115 -3.06,-4.905 -1.08,-2.8125 -1.08,-6.075 z"
       id="path86" />
    <path
       d="m 793.45369,511.5275 h 3.78 v -5.2425 q 0,-2.8125 0.9675,-4.5225 0.99,-1.71 2.4975,-2.475 1.53,-0.7875 3.1275,-0.7875 1.935,0 2.97,0.54 1.0575,0.54 1.26,0.72 l -1.575,2.9925 q -0.1125,-0.135 -0.6975,-0.495 -0.585,-0.36 -1.5975,-0.36 -0.7425,0 -1.44,0.36 -0.6975,0.36 -1.17,1.395 -0.4725,1.035 -0.4725,3.0825 v 4.7925 h 5.265 v 3.3525 h -5.265 V 530 h -3.87 v -15.12 h -3.78 z"
       id="path88" />
    <path
       d="m 831.73619,500.3 h 21.4875 l -16.695,26.2125 h 15.7275 V 530 h -22.6125 l 16.7625,-26.2125 h -14.67 z"
       id="path90" />
    <path
       d="m 873.07373,510.9875 q 1.8225,0 3.5325,0.765 1.7325,0.765 2.835,2.43 1.125,1.6425 1.125,4.2975 V 530 h -3.96 v -10.755 q 0,-2.745 -1.26,-3.9825 -1.2375,-1.26 -3.2625,-1.26 -1.35,0 -2.5875,0.765 -1.2375,0.7425 -2.0475,2.07 -0.7875,1.305 -0.7875,2.97 V 530 h -3.96 v -30.96 h 3.96 v 15.7725 q 0.2025,-0.765 1.08,-1.665 0.9,-0.9 2.295,-1.53 1.395,-0.63 3.0375,-0.63 z"
       id="path92" />
    <path
       d="m 905.70379,530 v -3.6 q -0.18,0.5625 -1.0575,1.5525 -0.855,0.99 -2.3625,1.8 -1.485,0.7875 -3.51,0.7875 -2.565,0 -4.6575,-1.215 -2.07,-1.215 -3.3075,-3.3975 -1.215,-2.205 -1.215,-5.1525 0,-2.9475 1.215,-5.13 1.2375,-2.205 3.3075,-3.42 2.0925,-1.2375 4.6575,-1.2375 2.0025,0 3.465,0.72 1.485,0.72 2.3625,1.665 0.9,0.945 1.0575,1.62 v -3.465 h 3.87 V 530 Z m -12.24,-9.225 q 0,2.0025 0.8775,3.465 0.8775,1.4625 2.2725,2.2725 1.4175,0.7875 3.015,0.7875 1.71,0 3.06,-0.81 1.35,-0.81 2.1375,-2.2725 0.7875,-1.485 0.7875,-3.4425 0,-1.9575 -0.7875,-3.42 -0.7875,-1.485 -2.1375,-2.295 -1.35,-0.8325 -3.06,-0.8325 -1.5975,0 -3.015,0.81 -1.395,0.81 -2.2725,2.2725 -0.8775,1.4625 -0.8775,3.465 z"
       id="path94" />
    <path
       d="m 928.32127,530.54 q -2.8575,0 -5.085,-1.2825 -2.205,-1.2825 -3.465,-3.465 -1.26,-2.205 -1.26,-4.9725 0,-2.7675 1.26,-4.995 1.26,-2.2275 3.465,-3.5325 2.2275,-1.305 5.085,-1.305 2.835,0 5.0175,1.305 2.205,1.305 3.4425,3.5325 1.2375,2.2275 1.2375,4.995 0,2.7675 -1.2375,4.9725 -1.2375,2.1825 -3.4425,3.465 -2.1825,1.2825 -5.0175,1.2825 z m 0,-3.3525 q 1.8,0 3.1275,-0.8325 1.35,-0.8325 2.0925,-2.2725 0.7425,-1.4625 0.7425,-3.285 0,-1.8225 -0.7425,-3.285 -0.7425,-1.4625 -2.0925,-2.3175 -1.3275,-0.855 -3.1275,-0.855 -1.8225,0 -3.1725,0.855 -1.35,0.855 -2.115,2.3175 -0.7425,1.4625 -0.7425,3.285 0,1.8225 0.7425,3.285 0.765,1.44 2.115,2.2725 1.35,0.8325 3.1725,0.8325 z"
       id="path96" />
    <path
       d="m 964.17375,500.3 h 21.4875 l -16.695,26.2125 h 15.7275 V 530 h -22.6125 l 16.7625,-26.2125 h -14.67 z"
       id="path98" />
    <path
       d="m 995.4763,530 v -18.4725 h 3.915 V 530 Z m 2.0025,-24.795 q -1.0575,0 -1.8225,-0.7425 -0.7425,-0.765 -0.7425,-1.8225 0,-1.0575 0.7425,-1.8225 0.765,-0.765 1.8225,-0.765 0.6975,0 1.2825,0.36 0.6075,0.36 0.9675,0.945 0.36,0.5625 0.36,1.2825 0,1.0575 -0.765,1.8225 -0.765,0.7425 -1.845,0.7425 z"
       id="path100" />
    <path
       d="m 1018.0487,526.4225 6.2325,-14.895 h 3.915 l -12.465,27.8325 h -3.96 l 4.185,-9.36 -7.605,-18.4725 h 3.9825 z"
       id="path102" />
    <path
       d="m 1051.0163,530 v -3.6 q -0.18,0.5625 -1.0575,1.5525 -0.855,0.99 -2.3625,1.8 -1.485,0.7875 -3.51,0.7875 -2.565,0 -4.6575,-1.215 -2.07,-1.215 -3.3075,-3.3975 -1.215,-2.205 -1.215,-5.1525 0,-2.9475 1.215,-5.13 1.2375,-2.205 3.3075,-3.42 2.0925,-1.2375 4.6575,-1.2375 2.0025,0 3.465,0.72 1.485,0.72 2.3625,1.665 0.9,0.945 1.0575,1.62 v -3.465 h 3.87 V 530 Z m -12.24,-9.225 q 0,2.0025 0.8775,3.465 0.8775,1.4625 2.2725,2.2725 1.4175,0.7875 3.015,0.7875 1.71,0 3.06,-0.81 1.35,-0.81 2.1375,-2.2725 0.7875,-1.485 0.7875,-3.4425 0,-1.9575 -0.7875,-3.42 -0.7875,-1.485 -2.1375,-2.295 -1.35,-0.8325 -3.06,-0.8325 -1.5975,0 -3.015,0.81 -1.395,0.81 -2.2725,2.2725 -0.8775,1.4625 -0.8775,3.465 z"
       id="path104" />
    <path
       d="m 1075.4113,510.9875 q 1.8225,0 3.5325,0.765 1.7325,0.765 2.835,2.43 1.125,1.6425 1.125,4.2975 V 530 h -3.96 v -10.755 q 0,-2.745 -1.2825,-3.9825 -1.2825,-1.26 -3.3075,-1.26 -1.3275,0 -2.565,0.765 -1.215,0.7425 -2.0025,2.07 -0.7875,1.305 -0.7875,2.97 V 530 h -3.915 v -18.4725 h 3.915 v 3.285 q 0.2025,-0.765 1.1025,-1.665 0.9,-0.9 2.295,-1.53 1.395,-0.63 3.015,-0.63 z"
       id="path106" />
    <path
       d="m 1101.8538,539.8775 q -2.1825,0 -3.96,-0.45 -1.755,-0.45 -3.0825,-1.2825 -1.305,-0.81 -2.0925,-1.9125 l 2.565,-2.4525 q 0.4275,0.585 1.1475,1.2375 0.7425,0.675 2.0025,1.1475 1.26,0.4725 3.285,0.4725 1.98,0 3.3525,-0.855 1.3725,-0.8325 2.0925,-2.2725 0.72,-1.44 0.72,-3.24 v -0.6075 h 3.825 v 0.855 q 0,3.06 -1.3275,5.13 -1.305,2.0925 -3.5325,3.15 -2.2275,1.08 -4.995,1.08 z m 6.03,-9.8775 v -3.6 q -0.18,0.5625 -1.0575,1.5525 -0.855,0.99 -2.3625,1.8 -1.485,0.7875 -3.51,0.7875 -2.565,0 -4.6575,-1.215 -2.07,-1.215 -3.3075,-3.3975 -1.215,-2.205 -1.215,-5.1525 0,-2.9475 1.215,-5.13 1.2375,-2.205 3.3075,-3.42 2.0925,-1.2375 4.6575,-1.2375 2.0025,0 3.465,0.72 1.485,0.72 2.3625,1.665 0.9,0.945 1.0575,1.62 v -3.465 h 3.87 V 530 Z m -12.24,-9.225 q 0,2.0025 0.8775,3.465 0.8775,1.4625 2.2725,2.2725 1.4175,0.7875 3.015,0.7875 1.71,0 3.06,-0.81 1.35,-0.81 2.1375,-2.2725 0.7875,-1.485 0.7875,-3.4425 0,-1.9575 -0.7875,-3.42 -0.7875,-1.485 -2.1375,-2.295 -1.35,-0.8325 -3.06,-0.8325 -1.5975,0 -3.015,0.81 -1.395,0.81 -2.2725,2.2725 -0.8775,1.4625 -0.8775,3.465 z"
       id="path108" />
  </g>
  <g
     aria-label="杜導正序"
     id="text18"
     class="contributor"
     style="font-size:50px;font-family:'Source Han Sans HC';letter-spacing:5px;text-anchor:middle">
    <path
       d="m 578.2,658 v 9.65 h -8.1 v 3.6 h 7.6 c -1.75,6.95 -5.25,14.75 -8.75,18.95 0.6,0.85 1.55,2.35 1.95,3.4 2.7,-3.4 5.35,-9 7.3,-14.8 v 25.15 h 3.65 v -25.6 c 1.35,2.5 2.75,5.3 3.35,6.85 l 2.4,-2.85 c -0.8,-1.4 -4.2,-6.75 -5.75,-9.05 v -2.05 h 6.65 v -3.6 h -6.65 V 658 Z m 20.9,0.5 v 15.25 h -10.05 v 3.6 h 10.05 v 20.75 h -12.8 v 3.65 h 29.2 v -3.65 h -12.55 v -20.75 h 10.8 v -3.6 h -10.8 V 658.5 Z"
       id="path111" />
    <path
       d="m 644.55,674.1 h 17.4 v 2.3 h -17.4 z m 0,4.3 h 17.4 v 2.4 h -17.4 z m 0,-8.5 h 17.4 v 2.2 h -17.4 z m -16.05,-11 c 1.2,1.5 2.6,3.7 3.25,5.05 l 3.25,-1 c -0.75,-1.35 -2.1,-3.35 -3.4,-4.85 z m 26.7,29.35 v 2.7 h -29.95 v 3 h 29.95 v 5.75 c 0,0.65 -0.2,0.8 -1,0.85 -0.85,0 -3.65,0.05 -6.85,-0.05 0.5,0.95 1.05,2.3 1.25,3.25 4.1,0 6.65,0 8.25,-0.55 1.6,-0.55 2,-1.5 2,-3.45 v -5.8 h 10.7 v -3 h -10.7 v -2.7 z m -20.6,7.8 c 2.55,1.85 5.45,4.6 6.75,6.5 l 2.75,-2.35 c -1.4,-1.85 -4.35,-4.5 -6.9,-6.25 z M 659.9,658 c -0.6,1.3 -1.65,3.2 -2.6,4.6 h -8.2 l 0.75,-0.25 c -0.45,-1.25 -1.65,-3.15 -2.75,-4.45 l -3,0.9 c 0.85,1.15 1.7,2.6 2.25,3.8 H 638 v 2.75 h 13.1 l -0.95,2.5 h -8.8 v 15 h 23.9 v -15 H 653.5 l 1.25,-2.5 h 14.45 v -2.75 h -8.35 c 0.85,-1.15 1.75,-2.5 2.6,-3.85 z m -33,18.8 c 0.35,-0.4 1.7,-0.7 2.9,-0.7 h 4.6 c -1.9,4.5 -5.35,8.05 -9.1,10.15 0.65,0.5 1.65,1.9 2,2.65 2.55,-1.55 4.95,-3.7 6.95,-6.4 3,4.55 7.8,5.35 16.95,5.35 6.1,0 13.25,-0.2 18.35,-0.45 0.15,-0.95 0.6,-2.5 1.1,-3.3 -5.5,0.55 -13.5,0.7 -19.5,0.7 -8.2,0 -12.85,-0.5 -15.4,-4.6 1.15,-1.9 2.05,-4 2.75,-6.3 l -1.4,-1 -0.6,0.15 h -5.25 c 2.5,-2.35 5.45,-5.35 7.15,-7.3 l -2.25,-1.3 -1,0.4 h -9.2 v 3.05 h 6.55 c -1.75,1.8 -3.7,3.75 -4.55,4.5 -0.9,0.8 -1.7,1.1 -2.35,1.25 0.4,0.7 1.1,2.3 1.3,3.15 z"
       id="path113" />
    <path
       d="m 686.9,674.5 v 23.6 h -6.8 v 3.65 H 725 v -3.65 h -19.25 v -15.75 h 15.65 v -3.65 h -15.65 v -13.35 h 17.6 v -3.7 H 682 v 3.7 h 19.8 v 32.75 h -11.05 v -23.6 z"
       id="path115" />
    <path
       d="m 801.05,678.15 c 3.35,1.45 7.35,3.35 10.6,5.05 H 794 v 3.25 h 15.6 v 13.15 c 0,0.75 -0.25,0.95 -1.25,1 -0.95,0.05 -4.3,0.05 -8,-0.05 0.5,1.05 1.1,2.45 1.3,3.5 4.5,0 7.5,0 9.3,-0.55 1.85,-0.55 2.4,-1.6 2.4,-3.85 v -13.2 h 10.8 c -1.7,2.3 -3.6,4.65 -5.2,6.25 l 3,1.5 c 2.6,-2.5 5.4,-6.45 8,-10.05 l -2.7,-1.15 -0.65,0.2 h -9.25 l 0.4,-0.4 c -1,-0.6 -2.35,-1.3 -3.8,-2 4.15,-2.25 8.45,-5.45 11.4,-8.5 l -2.45,-1.85 -0.85,0.2 H 796.9 v 3.1 h 21.8 c -2.3,2 -5.25,4.05 -8,5.45 -2.5,-1.15 -5.15,-2.3 -7.4,-3.25 z m 5,-19.35 c 0.75,1.45 1.65,3.25 2.3,4.8 H 788.5 v 13.9 c 0,7.25 -0.35,17.4 -4.45,24.55 0.85,0.4 2.5,1.45 3.15,2.1 4.3,-7.6 4.95,-18.9 4.95,-26.65 v -10.4 h 37.9 v -3.5 h -17.4 c -0.7,-1.65 -1.95,-4.05 -3,-5.85 z"
       id="path117" />
  </g>
  <g
     aria-label="鮑彤導言"
     id="text22"
     class="contributor"
     style="font-size:50px;font-family:'Source Han Sans HC';letter-spacing:5px;text-anchor:middle">
    <path
       d="m 585.85,772.3 c 1.4,2.75 2.8,6.4 3.3,8.75 l 2.6,-0.9 c -0.6,-2.35 -2.05,-6 -3.55,-8.7 z m -4.5,0.4 c 1.05,2.7 1.9,6.3 2.05,8.65 l 2.6,-0.6 c -0.25,-2.3 -1.15,-5.9 -2.2,-8.6 z m -4.3,0.05 c 0.5,2.95 0.75,6.7 0.55,9.2 l 2.7,-0.4 c 0.1,-2.45 -0.15,-6.2 -0.75,-9.15 z m -4.3,-0.45 c -0.4,3.95 -1.35,7.95 -3.55,10.25 l 2.5,1.5 c 2.45,-2.55 3.25,-6.9 3.75,-11.1 z m 9.75,-26.8 c -0.7,1.8 -1.55,3.7 -2.4,5.15 H 575 c 0.9,-1.7 1.65,-3.4 2.3,-5.15 z m 14.45,-7.45 c -1.25,4.9 -3.7,11.15 -7.8,16 v -3.4 h -5.7 c 1.25,-2.15 2.5,-4.65 3.45,-6.9 l -2.25,-1.45 -0.6,0.2 h -5.7 c 0.45,-1.35 0.85,-2.7 1.2,-4 l -3.4,-0.45 c -1.15,4.7 -3.35,10.9 -7.05,15.55 0.8,0.4 2.05,1.4 2.65,2.15 l 0.6,-0.8 V 770 h 16.8 v -15.35 c 0.85,0.45 1.9,1.4 2.45,2.05 0.65,-0.8 1.3,-1.65 1.9,-2.5 v 23.75 c 0,4.65 1.5,5.75 6.35,5.75 1.1,0 8.95,0 10.15,0 4.4,0 5.5,-1.95 6,-8.5 -1,-0.25 -2.35,-0.8 -3.2,-1.4 -0.25,5.55 -0.65,6.65 -3,6.65 -1.7,0 -8.4,0 -9.7,0 -2.75,0 -3.2,-0.45 -3.2,-2.5 V 766.9 h 10 v -14.25 h -12.35 c 0.95,-1.5 1.8,-3.05 2.55,-4.65 h 14.1 c -0.25,14.65 -0.6,19.6 -1.35,20.75 -0.35,0.6 -0.75,0.7 -1.4,0.7 -0.7,0 -2.3,0 -4.05,-0.15 0.45,0.9 0.8,2.25 0.85,3.25 1.9,0.1 3.7,0.1 4.8,-0.05 1.25,-0.15 2.05,-0.55 2.8,-1.55 1.1,-1.7 1.4,-7.45 1.75,-24.65 0,-0.45 0,-1.65 0,-1.65 h -16.05 c 0.8,-2.1 1.5,-4.15 2.05,-6.1 z m -21.55,23.7 h 3.85 v 5.15 h -3.85 z m 6.6,0 h 4 v 5.15 h -4 z m -6.6,-8 h 3.85 v 5.05 h -3.85 z m 6.6,0 h 4 v 5.05 h -4 z m 14.9,2.15 h 6.8 v 7.7 h -6.8 z"
       id="path120" />
    <path
       d="m 634.4,748.5 c 2.25,3 4.5,7.05 5.25,9.75 l 3.1,-1.45 c -0.8,-2.75 -3.15,-6.7 -5.45,-9.6 z m 30.2,-9.55 c -2.85,3.9 -8.15,8.1 -12.5,10.5 1,0.65 2.1,1.8 2.75,2.6 4.65,-2.8 9.9,-7.2 13.3,-11.6 z m 1.2,13.25 c -2.95,4.55 -8.45,9.15 -13.6,11.7 0.95,0.7 2,1.85 2.6,2.75 5.55,-3.05 11.1,-7.85 14.5,-13.1 z m 1.1,13.65 c -3.15,6.5 -9.35,12.1 -16.5,15.15 0.9,0.8 2.05,2.1 2.65,3.05 7.6,-3.6 13.9,-9.55 17.55,-16.8 z m -41.85,-6.05 v 3.65 h 4.35 c -0.1,6.25 -0.85,13.5 -4.85,18.55 0.9,0.4 2.4,1.4 3,2 4.3,-5.4 5.2,-13.7 5.35,-20.55 h 12.8 v 15.15 c 0,0.7 -0.25,0.9 -0.9,0.95 -0.6,0 -2.75,0 -4.9,-0.05 0.45,0.9 0.95,2.5 1.1,3.4 3.15,0.05 5.2,-0.05 6.55,-0.6 1.3,-0.6 1.7,-1.65 1.7,-3.7 v -15.15 h 3.6 v -3.65 h -3.6 V 740.6 H 629.4 v 19.2 z m 7.85,-15.75 h 12.8 v 15.75 h -12.8 z"
       id="path122" />
    <path
       d="m 749.55,754.1 h 17.4 v 2.3 h -17.4 z m 0,4.3 h 17.4 v 2.4 h -17.4 z m 0,-8.5 h 17.4 v 2.2 h -17.4 z m -16.05,-11 c 1.2,1.5 2.6,3.7 3.25,5.05 l 3.25,-1 c -0.75,-1.35 -2.1,-3.35 -3.4,-4.85 z m 26.7,29.35 v 2.7 h -29.95 v 3 h 29.95 v 5.75 c 0,0.65 -0.2,0.8 -1,0.85 -0.85,0 -3.65,0.05 -6.85,-0.05 0.5,0.95 1.05,2.3 1.25,3.25 4.1,0 6.65,0 8.25,-0.55 1.6,-0.55 2,-1.5 2,-3.45 v -5.8 h 10.7 v -3 h -10.7 v -2.7 z m -20.6,7.8 c 2.55,1.85 5.45,4.6 6.75,6.5 l 2.75,-2.35 c -1.4,-1.85 -4.35,-4.5 -6.9,-6.25 z M 764.9,738 c -0.6,1.3 -1.65,3.2 -2.6,4.6 h -8.2 l 0.75,-0.25 c -0.45,-1.25 -1.65,-3.15 -2.75,-4.45 l -3,0.9 c 0.85,1.15 1.7,2.6 2.25,3.8 H 743 v 2.75 h 13.1 l -0.95,2.5 h -8.8 v 15 h 23.9 v -15 H 758.5 l 1.25,-2.5 h 14.45 v -2.75 h -8.35 c 0.85,-1.15 1.75,-2.5 2.6,-3.85 z m -33,18.8 c 0.35,-0.4 1.7,-0.7 2.9,-0.7 h 4.6 c -1.9,4.5 -5.35,8.05 -9.1,10.15 0.65,0.5 1.65,1.9 2,2.65 2.55,-1.55 4.95,-3.7 6.95,-6.4 3,4.55 7.8,5.35 16.95,5.35 6.1,0 13.25,-0.2 18.35,-0.45 0.15,-0.95 0.6,-2.5 1.1,-3.3 -5.5,0.55 -13.5,0.7 -19.5,0.7 -8.2,0 -12.85,-0.5 -15.4,-4.6 1.15,-1.9 2.05,-4 2.75,-6.3 l -1.4,-1 -0.6,0.15 h -5.25 c 2.5,-2.35 5.45,-5.35 7.15,-7.3 l -2.25,-1.3 -1,0.4 h -9.2 v 3.05 h 6.55 c -1.75,1.8 -3.7,3.75 -4.55,4.5 -0.9,0.8 -1.7,1.1 -2.35,1.25 0.4,0.7 1.1,2.3 1.3,3.15 z"
       id="path124" />
    <path
       d="m 792.5,760.4 v 3.1 h 30.15 v -3.1 z m 0,-7.5 v 3.1 h 30.15 v -3.1 z m -0.5,15.35 v 15.7 h 3.7 v -2.1 h 23.7 v 1.95 h 3.8 v -15.55 z m 3.7,10.4 v -7.2 h 23.7 v 7.2 z M 803.1,739 c 1.75,1.95 3.55,4.6 4.55,6.5 H 785.2 v 3.3 h 44.85 v -3.3 h -20.1 l 1.8,-0.6 c -0.95,-1.95 -3.05,-4.85 -5,-7 z"
       id="path126" />
  </g>
  <g
     aria-label="羅德里克•麥克法夸爾代後記"
     id="text26"
     class="contributor"
     style="font-size:50px;font-family:'Source Han Sans HC';letter-spacing:5px;text-anchor:middle">
    <path
       d="M 352.45,822.85 H 361 v 5.05 h -8.55 z m -11.9,0 H 349 v 5.05 h -8.45 z m -11.6,0 h 8.15 v 5.05 h -8.15 z m 1.95,30.7 c 0.8,2.75 1.5,6.3 1.55,8.7 l 2.95,-0.55 c -0.1,-2.35 -0.8,-5.85 -1.65,-8.65 z m -5.35,-0.35 c -0.45,3.3 -1.2,6.8 -2.5,9.2 0.8,0.15 2.2,0.5 2.95,0.8 1.15,-2.4 2.1,-6.15 2.65,-9.6 z m 11.1,-0.4 c 1.4,2.5 2.8,5.8 3.25,8 l 2.9,-0.7 c -0.55,-2.2 -2,-5.45 -3.45,-7.95 z m -12.2,-1.1 c 1.05,-0.45 2.8,-0.75 15.15,-2.05 0.35,0.95 0.6,1.9 0.8,2.65 l 2.75,-1.1 c -0.55,-2.3 -2.15,-5.85 -3.75,-8.6 l -2.65,0.95 c 0.65,1.1 1.25,2.35 1.8,3.55 l -8.85,0.85 c 4,-3.3 7.95,-7.35 11.4,-11.5 l -2.95,-1.65 c -1,1.4 -2.15,2.8 -3.3,4.15 l -5.8,0.35 c 2.25,-2.15 4.45,-4.75 6.3,-7.45 l -2.55,-1.1 h 31.95 v -10.8 h -39.4 v 10.8 h 6.55 c -2.05,3.4 -5.05,6.8 -6,7.65 -0.95,0.95 -1.75,1.5 -2.6,1.65 0.45,0.75 1,2.2 1.2,2.75 0.75,-0.25 1.9,-0.45 7.7,-1 -2.2,2.25 -4.15,4.05 -5.05,4.75 -1.55,1.35 -2.8,2.2 -3.9,2.35 0.5,0.75 1,2.2 1.2,2.8 z m 31.5,-11.15 v 4.15 h -7.2 v -4.15 z m -1.65,-8.15 c 0.85,1.5 1.7,3.35 2.3,5 h -7.55 c 1,-1.8 1.9,-3.65 2.65,-5.5 l -3.4,-0.85 c -1.75,4.7 -4.7,9.3 -8,12.45 0.85,0.5 2.2,1.55 2.85,2.15 0.7,-0.75 1.45,-1.6 2.15,-2.5 v 20.9 h 3.45 V 862 h 19.1 v -3.1 h -8.5 v -4.25 h 6.55 v -2.85 h -6.55 v -4.25 h 6.55 v -2.85 h -6.55 v -4.15 h 7.7 V 837.4 H 360 c -0.6,-1.85 -1.65,-4.1 -2.75,-5.95 z m 1.65,15.15 v 4.25 h -7.2 v -4.25 z m 0,7.1 v 4.25 h -7.2 v -4.25 z"
       id="path129" />
    <path
       d="m 390.9,844.55 v 3.1 h 32.15 v -3.1 z m 12.55,4.45 c 1.3,2 2.85,4.75 3.6,6.4 l 2.95,-1.25 c -0.8,-1.55 -2.45,-4.2 -3.75,-6.15 z m -5.15,2.5 v 7.6 c 0,3.35 1.05,4.25 5.25,4.25 0.95,0 6.5,0 7.4,0 3.4,0 4.35,-1.3 4.75,-6.55 -0.95,-0.2 -2.3,-0.7 -3,-1.2 -0.2,4.2 -0.45,4.75 -2.1,4.75 -1.2,0 -5.85,0 -6.7,0 -1.95,0 -2.25,-0.2 -2.25,-1.3 v -7.55 z m -4.95,-0.3 c -0.85,3.05 -2.5,6.95 -4.45,9.35 l 2.95,1.65 c 2,-2.65 3.4,-6.7 4.45,-9.85 z m 21.8,0.65 c 2,3.05 4.1,7.2 4.95,9.8 l 3.05,-1.35 C 422.2,857.75 420,853.7 418,850.7 Z m -2.75,-20.2 h 5.35 v 6.8 h -5.35 z m -8,0 h 5.25 v 6.8 h -5.25 z m -7.8,0 h 5.05 v 6.8 H 396.6 Z M 387.15,818 c -2.35,3.55 -6.8,8.15 -10.45,11 0.6,0.75 1.55,2.2 1.95,3 4,-3.3 8.75,-8.3 11.9,-12.55 z m 18.1,-0.15 -0.4,4.25 h -13.5 v 3.1 h 13.1 l -0.6,3.6 h -10.3 v 12.5 h 27.4 V 828.8 H 407.4 l 0.65,-3.6 h 14.75 v -3.1 h -14.2 l 0.6,-4.05 z m -17.2,11 c -2.85,5.7 -7.35,11.6 -11.65,15.45 0.7,0.85 1.85,2.6 2.3,3.4 1.65,-1.65 3.4,-3.6 5.05,-5.75 V 864 h 3.55 v -26.95 c 1.55,-2.3 2.95,-4.65 4.15,-7 z"
       id="path131" />
    <path
       d="m 441.45,832.8 h 11.95 v 6.4 h -11.95 z m 15.55,0 h 12.15 v 6.4 H 457 Z m -15.55,-9.4 h 11.95 v 6.25 h -11.95 z m 15.55,0 h 12.15 v 6.25 H 457 Z m -20.9,24.95 v 3.5 h 17.05 v 7.2 H 432.7 v 3.5 h 44.7 v -3.5 h -20.2 v -7.2 h 17.5 v -3.5 h -17.5 v -5.8 h 15.85 V 820 H 437.7 v 22.55 h 15.45 v 5.8 z"
       id="path133" />
    <path
       d="m 497.65,835.4 h 24.75 v 8.05 h -24.75 z m 10.3,-17.45 V 823 H 488.5 v 3.45 h 19.45 v 5.6 H 494 v 14.8 h 7.85 c -1.05,7.05 -3.65,11.55 -14.7,13.8 0.8,0.8 1.85,2.45 2.2,3.45 12.15,-2.9 15.35,-8.5 16.5,-17.25 h 7.45 v 11.4 c 0,4.1 1.25,5.25 5.95,5.25 1,0 6.9,0 7.95,0 4.25,0 5.3,-1.85 5.75,-9.4 -1.05,-0.3 -2.65,-0.9 -3.5,-1.55 -0.2,6.45 -0.5,7.35 -2.55,7.35 -1.35,0 -6.25,0 -7.25,0 -2.15,0 -2.5,-0.2 -2.5,-1.7 v -11.35 h 9.1 v -14.8 h -14.5 v -5.6 H 531.7 V 823 h -19.95 v -5.05 z"
       id="path135" />
    <path
       d="m 565,835.7 c -2.95,0 -5.3,2.35 -5.3,5.3 0,2.95 2.35,5.3 5.3,5.3 2.95,0 5.3,-2.35 5.3,-5.3 0,-2.95 -2.35,-5.3 -5.3,-5.3 z"
       id="path137" />
    <path
       d="m 618.1,818 v 3.9 h -19.6 v 3.3 h 19.6 v 7.3 c -4.5,5.8 -13.2,10.75 -21.6,12.85 0.75,0.75 1.75,2 2.25,2.9 7.95,-2.4 16.05,-7.3 21.1,-13.3 5.2,5.65 13.6,10.45 21.4,12.75 0.5,-0.95 1.55,-2.3 2.3,-3 -8.25,-2.05 -17.2,-6.8 -21.8,-12.2 v -7.3 h 20 v -3.3 h -20 V 818 Z m -1.45,22.65 c -3.05,4 -8.8,8.6 -16.45,11.85 0.8,0.55 1.85,1.55 2.35,2.35 2.7,-1.25 5.15,-2.6 7.35,-4.05 2.8,1.3 5.85,2.8 8.85,4.4 -5.35,3.1 -11.95,5.1 -18.4,6.1 0.65,0.75 1.3,2.15 1.65,3.05 7.1,-1.3 14.25,-3.65 20.05,-7.45 5.05,2.7 9.7,5.45 12.75,7.5 l 2.55,-2.8 c -3.05,-2 -7.5,-4.45 -12.25,-6.9 3.1,-2.6 5.7,-5.75 7.5,-9.5 l -2.25,-1.2 -0.6,0.15 h -11.8 c 0.9,-0.9 1.65,-1.75 2.4,-2.65 z m 11.15,6.3 c -1.5,2.35 -3.55,4.35 -5.9,6.15 -3.1,-1.55 -6.2,-3.05 -9.1,-4.4 l 2.2,-1.75 z M 607.35,826.3 c -1.8,5 -5.45,9.15 -9.95,11.7 0.75,0.5 2.05,1.65 2.55,2.2 2.65,-1.75 5.15,-4 7.15,-6.75 1.85,1.35 3.8,2.95 4.95,4 l 2.05,-2.35 c -1.2,-1.2 -3.4,-2.8 -5.4,-4.1 0.75,-1.25 1.35,-2.6 1.85,-4 z m 24.55,-0.1 c -1.15,3.5 -3.45,6.55 -6.3,8.65 0.75,0.5 2,1.6 2.55,2.15 1.3,-1.05 2.55,-2.3 3.65,-3.75 2.75,1.95 5.75,4.3 7.35,5.95 l 2.2,-2.35 c -1.8,-1.65 -5.05,-4.15 -7.95,-6.05 0.7,-1.2 1.3,-2.5 1.75,-3.85 z"
       id="path139" />
    <path
       d="m 662.65,835.4 h 24.75 v 8.05 h -24.75 z m 10.3,-17.45 V 823 H 653.5 v 3.45 h 19.45 v 5.6 H 659 v 14.8 h 7.85 c -1.05,7.05 -3.65,11.55 -14.7,13.8 0.8,0.8 1.85,2.45 2.2,3.45 12.15,-2.9 15.35,-8.5 16.5,-17.25 h 7.45 v 11.4 c 0,4.1 1.25,5.25 5.95,5.25 1,0 6.9,0 7.95,0 4.25,0 5.3,-1.85 5.75,-9.4 -1.05,-0.3 -2.65,-0.9 -3.5,-1.55 -0.2,6.45 -0.5,7.35 -2.55,7.35 -1.35,0 -6.25,0 -7.25,0 -2.15,0 -2.5,-0.2 -2.5,-1.7 v -11.35 h 9.1 v -14.8 h -14.5 v -5.6 H 696.7 V 823 h -19.95 v -5.05 z"
       id="path141" />
    <path
       d="m 709.75,821.25 c 3.35,1.5 7.45,3.9 9.5,5.65 l 2.15,-3.15 c -2.1,-1.65 -6.3,-3.9 -9.55,-5.2 z m -2.65,13.6 c 3.25,1.4 7.25,3.75 9.25,5.4 l 2.1,-3.1 c -2.05,-1.65 -6.15,-3.8 -9.3,-5.1 z m 1.7,25.95 3.15,2.55 c 2.95,-4.65 6.45,-10.9 9.1,-16.2 l -2.75,-2.45 c -2.9,5.65 -6.85,12.25 -9.5,16.1 z m 15.5,1.45 c 1.35,-0.6 3.45,-0.95 22.15,-3.3 1,1.85 1.8,3.6 2.3,5 l 3.3,-1.7 c -1.5,-3.9 -5.3,-9.85 -8.85,-14.25 l -3,1.45 c 1.5,1.95 3.05,4.2 4.45,6.45 l -15.85,1.75 c 3.1,-4.2 6.25,-9.55 8.85,-14.9 h 14.2 v -3.55 h -13.2 v -9.05 H 749.8 V 826.6 H 738.65 V 818 h -3.75 v 8.6 h -10.75 v 3.55 h 10.75 v 9.05 h -12.95 v 3.55 h 11.2 c -2.5,5.65 -5.85,11 -6.95,12.5 -1.25,1.85 -2.2,3 -3.2,3.25 0.45,1.05 1.1,2.95 1.3,3.75 z"
       id="path143" />
    <path
       d="m 781,818 c -0.65,2.05 -1.55,4.15 -2.8,6.25 h -15.1 v 3.35 h 12.85 c -3.3,4.25 -7.9,8.15 -14.15,11 0.8,0.7 1.8,2.1 2.25,3 4.25,-2.05 7.85,-4.6 10.8,-7.35 v 2.95 h 20.4 v -3 c 3.3,3.2 7.4,5.85 11.7,7.65 0.3,-1.05 1,-2.7 1.6,-3.65 -5.95,-2 -11.35,-5.95 -14.65,-10.6 h 13.15 v -3.35 H 782.5 c 0.95,-1.85 1.75,-3.75 2.4,-5.6 z m -5.95,16.05 c 2.1,-2.05 3.9,-4.2 5.45,-6.45 h 9.45 c 1.35,2.3 3.1,4.45 5.15,6.45 z m -8.7,7.9 v 3.2 h 7.8 c -0.85,2.75 -1.95,5.7 -2.95,7.9 l 4,-0.05 h 19.9 c -0.85,4.25 -1.75,6.35 -2.8,7.15 -0.55,0.35 -1.2,0.4 -2.4,0.4 -1.3,0 -4.85,-0.05 -8.3,-0.4 0.6,1 1.1,2.4 1.15,3.45 3.45,0.2 6.75,0.2 8.3,0.15 1.9,-0.05 3,-0.25 4.1,-1.2 1.65,-1.4 2.85,-4.45 4,-11 0.2,-0.5 0.3,-1.65 0.3,-1.65 H 776.4 l 1.65,-4.75 h 25.4 v -3.2 z"
       id="path145" />
    <path
       d="m 818.2,821 v 3.4 h 19.9 v 6.8 h -12.8 c 2.55,-1.65 5,-3.55 6.8,-5.5 l -3.4,-1.2 c -2.85,2.95 -7.6,5.7 -12.05,7.5 0.85,0.55 2.25,1.85 2.85,2.5 l 2,-1.05 V 864 h 3.55 v -29.65 h 13.05 v 29.4 h 3.6 v -29.4 h 13.7 v 25.5 c 0,0.7 -0.25,0.95 -0.95,1 -0.85,0.05 -3.4,0.05 -6.3,-0.05 0.45,0.9 1,2.3 1.15,3.2 3.8,0 6.3,0 7.8,-0.6 1.45,-0.5 1.9,-1.5 1.9,-3.55 v -27 l 1.45,1.05 2.8,-2.4 c -2.85,-2.05 -8.05,-5.05 -12.5,-7.1 H 862.1 V 821 Z m 29.15,5.25 c 2.95,1.3 6.35,3.15 9.15,4.95 h -14.8 v -6.8 h 8 z M 826.8,839 c 1.1,0.55 2.25,1.25 3.35,2 -1.25,1.65 -2.7,3.15 -4.2,4.4 0.6,0.3 1.65,1.05 2.05,1.45 1.4,-1.25 2.8,-2.8 4.1,-4.5 1.2,0.9 2.2,1.8 2.95,2.55 l 1.55,-2.05 c -0.75,-0.75 -1.85,-1.6 -3.05,-2.5 0.9,-1.4 1.7,-2.85 2.4,-4.3 l -2.4,-0.6 c -0.55,1.2 -1.25,2.4 -2,3.6 -1.1,-0.7 -2.2,-1.35 -3.25,-1.85 z m -0.1,11.65 c 1.2,0.7 2.45,1.55 3.65,2.45 -1.35,2 -2.95,3.8 -4.7,5.2 0.65,0.35 1.7,1.15 2.15,1.55 1.6,-1.4 3.15,-3.2 4.55,-5.2 1.15,0.95 2.2,1.95 2.95,2.75 l 1.5,-2.05 c -0.75,-0.8 -1.85,-1.8 -3.1,-2.8 0.9,-1.55 1.7,-3.15 2.35,-4.85 l -2.5,-0.6 c -0.55,1.35 -1.15,2.7 -1.9,3.95 -1.15,-0.8 -2.35,-1.55 -3.45,-2.2 z m 16.55,-11.85 c 1.15,0.6 2.4,1.35 3.6,2.2 -1.35,1.7 -2.85,3.25 -4.4,4.5 0.65,0.35 1.65,1.1 2.1,1.45 1.4,-1.25 2.85,-2.85 4.2,-4.6 1.25,0.95 2.35,1.9 3.1,2.7 l 1.55,-2 c -0.8,-0.8 -1.95,-1.75 -3.25,-2.7 0.95,-1.4 1.75,-2.85 2.45,-4.3 l -2.4,-0.6 c -0.55,1.2 -1.2,2.4 -2,3.55 -1.1,-0.7 -2.3,-1.4 -3.45,-1.95 z m 0.15,11.7 c 1.25,0.7 2.55,1.5 3.8,2.4 -1.4,2 -3.1,3.8 -4.85,5.2 0.6,0.35 1.65,1.15 2.1,1.55 1.65,-1.45 3.3,-3.25 4.75,-5.3 1.25,0.95 2.3,1.9 3.1,2.7 l 1.5,-2.05 c -0.8,-0.85 -1.9,-1.8 -3.2,-2.75 0.85,-1.45 1.65,-3 2.3,-4.6 l -2.5,-0.6 c -0.5,1.3 -1.1,2.55 -1.85,3.8 -1.2,-0.8 -2.45,-1.6 -3.65,-2.2 z"
       id="path147" />
    <path
       d="m 955.75,820.85 c 2.95,2.5 6.45,6 8.1,8.25 l 2.9,-2 c -1.7,-2.25 -5.3,-5.65 -8.3,-8.05 z m -8.35,-2.15 c 0.2,5.3 0.55,10.3 1,14.9 l -12.2,1.55 0.55,3.55 12.05,-1.5 c 1.9,15.7 5.9,26.15 14.2,26.75 2.65,0.15 4.65,-2.45 5.75,-11.1 -0.75,-0.35 -2.4,-1.25 -3.15,-2 -0.5,5.8 -1.3,8.75 -2.75,8.7 C 957.5,859 954.2,850 952.5,836.7 l 15.25,-1.9 -0.55,-3.55 -15.1,1.9 c -0.5,-4.45 -0.8,-9.35 -0.95,-14.45 z m -11.75,-0.2 c -3.3,7.95 -8.85,15.6 -14.6,20.5 0.65,0.85 1.8,2.75 2.2,3.6 2.3,-2.05 4.55,-4.55 6.7,-7.3 v 28.6 h 3.85 v -34.1 c 2.05,-3.2 3.9,-6.65 5.4,-10.15 z"
       id="path149" />
    <path
       d="m 987.2,818 c -2.1,3.55 -6.3,7.8 -10.05,10.5 0.6,0.65 1.6,2 2.1,2.75 4.05,-3.05 8.55,-7.75 11.35,-11.95 z m 5.2,23.05 c 1,-0.35 2.25,-0.55 9.2,-1 -2.95,4.35 -7.45,8.15 -12,10.65 0.8,0.65 2.05,2.1 2.55,2.8 1.95,-1.2 3.95,-2.7 5.8,-4.35 1.65,2.4 3.65,4.6 5.95,6.5 -4.35,2.55 -9.45,4.25 -14.5,5.25 0.7,0.8 1.5,2.3 1.85,3.25 5.5,-1.3 10.95,-3.3 15.65,-6.25 4.15,2.8 9.1,4.9 14.5,6.15 0.5,-0.95 1.45,-2.4 2.3,-3.2 -5.1,-1 -9.8,-2.75 -13.8,-5.1 3.65,-2.85 6.65,-6.4 8.55,-10.8 l -2.4,-1.15 -0.65,0.15 H 1003 c 1.05,-1.35 2.05,-2.75 2.9,-4.2 l 11.3,-0.7 c 1.05,1.55 1.95,2.95 2.5,4.15 l 3.1,-1.85 c -1.6,-3 -5.15,-7.55 -8.3,-10.85 l -2.9,1.5 c 1.2,1.3 2.4,2.75 3.55,4.25 l -16.1,0.9 c 6.1,-3.3 12.35,-7.55 18.25,-12.45 l -3.25,-1.8 c -2.05,1.85 -4.3,3.65 -6.55,5.35 l -9.3,0.3 c 3.15,-2.45 6.35,-5.6 9.2,-8.85 l -3.5,-1.55 c -2.85,3.85 -7.1,7.7 -8.35,8.7 -1.2,1 -2.25,1.7 -3.15,1.85 0.45,0.95 1,2.65 1.15,3.45 0.8,-0.35 2.15,-0.55 9.65,-0.9 -2.8,1.95 -5.2,3.4 -6.35,4 -2.35,1.4 -4.1,2.3 -5.45,2.45 0.35,0.9 0.9,2.65 1,3.35 z m 7.9,5.9 h 13.1 c -1.65,2.6 -3.9,4.9 -6.55,6.8 -2.7,-1.95 -4.9,-4.25 -6.55,-6.8 z M 988.4,828.2 c -2.8,5.3 -7.35,10.5 -11.75,13.95 0.7,0.75 1.8,2.55 2.2,3.3 1.65,-1.35 3.3,-3 4.9,-4.8 v 23.5 h 3.6 v -27.9 c 1.65,-2.2 3.15,-4.55 4.4,-6.85 z"
       id="path151" />
    <path
       d="m 1034.55,832.85 v 2.95 h 15.05 v -2.95 z m -0.95,7 v 3 h 17 v -3 z m -1.5,-14.05 v 3.1 h 20.05 v -3.1 z m 5.85,-6.5 c 1.65,1.85 3.4,4.5 4.15,6.25 l 3.05,-1.8 c -0.75,-1.7 -2.55,-4.2 -4.3,-6.05 z m 16.3,1.45 v 3.6 h 16.95 v 12.8 h -16.3 v 19.9 c 0,4.75 1.55,5.95 6.7,5.95 1.1,0 8.6,0 9.75,0 5,0 6.15,-2.2 6.7,-10.35 -1.1,-0.2 -2.65,-0.85 -3.5,-1.5 -0.3,7 -0.7,8.3 -3.4,8.3 -1.65,0 -8,0 -9.25,0 -2.75,0 -3.25,-0.4 -3.25,-2.4 V 840.7 h 12.55 v 2.7 h 3.75 v -22.65 z m -20.05,25.9 v 16.95 h 3.35 v -2.3 h 12.2 v -14.65 z m 3.35,3.1 h 8.85 v 8.45 h -8.85 z"
       id="path153" />
  </g>
</svg>
