<?xml version="1.0" encoding="utf-8"?>
<svg xmlns="http://www.w3.org/2000/svg" version="1.1" viewBox="0 0 1400 900">
	<title>The titlepage for the Standard Ebooks edition of Gai Ge LI Cheng, by Ziyang Zhao</title>
	<g aria-label="改革歷程">
		<path d="M482.80,72.25L513.70,72.25C510.55,91.90,505.75,108.55,498.40,122.35C491.05,108.25,485.80,91.75,482.20,73.90Z  M403.90,44.50L403.90,55.60L446.05,55.60L446.05,87.40L405.85,87.40L405.85,144.55C405.85,150.10,403.45,152.05,401.20,153.10C403.15,155.95,404.95,161.50,405.70,164.80C409.15,161.95,414.70,159.10,458.35,142.45C457.90,139.90,457.15,135.10,457.00,131.80L417.25,146.05L417.25,98.50L456.85,98.50L456.10,99.40C458.50,101.20,463.00,105.55,464.80,107.50C468.70,102.25,472.30,96.25,475.45,89.65C479.65,105.70,484.90,120.40,491.80,132.85C482.80,145.45,470.80,155.20,454.90,162.40C457.15,164.80,460.45,169.90,461.65,172.60C476.95,164.95,488.95,155.35,498.40,143.35C506.65,155.20,517.00,164.80,529.75,171.25C531.55,168.25,535.00,164.05,537.70,161.80C524.35,155.65,513.70,145.90,505.15,133.45C515.05,117.10,521.35,97.00,525.40,72.25L535.30,72.25L535.30,61.75L486.40,61.75C488.95,53.50,491.20,44.80,493.00,35.95L481.90,34.00C477.25,58.60,469.00,82.45,457.15,98.05L457.15,44.50Z"/>
		<path d="M572.10,88.75L572.10,125.05L616.65,125.05L616.65,137.95L555.30,137.95L555.30,148.30L616.65,148.30L616.65,172.00L628.20,172.00L628.20,148.30L689.85,148.30L689.85,137.95L628.20,137.95L628.20,125.05L674.10,125.05L674.10,88.75L628.20,88.75L628.20,78.40L656.40,78.40L656.40,56.80L687.30,56.80L687.30,47.05L656.40,47.05L656.40,33.85L644.70,33.85L644.70,47.05L600.00,47.05L600.00,33.85L589.05,33.85L589.05,47.05L558.00,47.05L558.00,56.80L589.05,56.80L589.05,78.40L616.65,78.40L616.65,88.75Z  M583.35,98.05L616.65,98.05L616.65,115.90L583.35,115.90Z  M628.20,98.05L662.25,98.05L662.25,115.90L628.20,115.90Z  M644.70,56.80L644.70,69.55L600.00,69.55L600.00,56.80Z"/>
		<path d="M720.80,41.20L720.80,85.60C720.80,109.30,719.75,142.60,707.60,166.30C710.30,167.35,714.95,170.05,717.05,171.70C726.35,153.70,729.80,129.70,731.00,108.25C731.45,100.15,731.60,92.50,731.60,85.60L731.60,51.40L844.10,51.40L844.10,41.20Z  M749.00,126.40L749.00,158.20L729.80,158.20L729.80,167.80L844.55,167.80L844.55,158.20L793.40,158.20L793.40,139.75L830.15,139.75L830.15,130.60L793.40,130.60L793.40,115.60L782.45,115.60L782.45,158.20L759.80,158.20L759.80,126.40Z  M772.85,55.00C765.05,58.45,749.60,61.00,736.55,62.35C737.60,64.30,738.80,67.45,739.25,69.25C744.50,68.80,750.05,68.20,755.60,67.30L755.60,78.10L736.10,78.10L736.10,86.50L751.55,86.50C746.30,95.20,738.50,103.75,731.00,108.25C733.10,109.90,735.95,112.90,737.45,115.30C743.75,110.50,750.50,102.55,755.60,94.15L755.60,115.90L765.05,115.90L765.05,96.25C769.40,100.00,774.20,104.50,776.30,106.75L782.15,99.55C779.45,97.30,768.95,89.80,765.05,87.25L765.05,86.50L782.75,86.50L782.75,78.10L765.05,78.10L765.05,65.65C770.90,64.30,776.30,62.80,780.65,61.00Z  M827.15,54.70C818.60,58.15,801.80,60.70,787.55,62.05C788.60,63.85,789.95,67.00,790.25,68.95C795.80,68.50,801.80,67.90,807.80,67.00L807.80,78.10L787.25,78.10L787.25,86.50L801.65,86.50C796.10,95.20,787.40,103.75,779.45,108.25C781.55,109.90,784.40,113.05,785.90,115.30C793.70,109.90,802.10,100.45,807.80,90.55L807.80,115.90L817.40,115.90L817.40,96.55C824.60,102.10,834.95,110.65,839.00,114.55L844.40,106.90C840.20,103.60,822.50,90.70,817.40,87.55L817.40,86.50L842.00,86.50L842.00,78.10L817.40,78.10L817.40,65.50C824.00,64.15,830.00,62.65,834.95,60.70Z"/>
		<path d="M935.80,51.40L982.00,51.40L982.00,79.60L935.80,79.60Z  M925.30,41.65L925.30,89.35L992.80,89.35L992.80,41.65Z  M988.00,94.90C972.55,99.40,944.05,102.25,920.50,103.75C921.70,106.15,922.90,110.05,923.20,112.45C932.65,112.00,943.00,111.40,953.05,110.35L953.05,128.20L923.65,128.20L923.65,137.95L953.05,137.95L953.05,158.20L915.40,158.20L915.40,168.25L1000.90,168.25L1000.90,158.20L964.15,158.20L964.15,137.95L994.60,137.95L994.60,128.20L964.15,128.20L964.15,109.00C975.85,107.65,986.80,105.70,995.50,103.30Z  M912.10,36.10C901.00,41.20,881.05,45.55,863.95,48.40C865.15,50.80,866.80,54.55,867.25,56.95C874.30,56.05,881.80,54.85,889.30,53.35L889.30,76.30L864.85,76.30L864.85,86.80L887.80,86.80C881.80,104.05,871.45,123.55,861.70,134.20C863.65,136.90,866.35,141.40,867.55,144.55C875.20,135.25,883.15,120.40,889.30,105.25L889.30,171.70L900.40,171.70L900.40,107.05C905.50,113.35,911.50,121.45,914.05,125.65L920.80,116.80C917.80,113.35,904.75,99.85,900.40,96.10L900.40,86.80L919.15,86.80L919.15,76.30L900.40,76.30L900.40,50.95C907.60,49.15,914.35,47.05,920.05,44.80Z"/>
	</g>
	<g aria-label="趙紫陽">
		<path d="M589.26,277.15C592.41,282.51,595.36,289.65,596.20,294.38L602.60,292.27C601.55,287.44,598.61,280.41,595.04,275.26Z  M629.16,275.16C627.38,280.51,623.81,288.28,620.98,293.12L626.96,295.00C629.79,290.38,633.15,283.45,635.99,277.26Z  M598.61,318.31L625.28,318.31L625.28,327.76L598.61,327.76Z  M598.61,312.54L598.61,303.40L625.28,303.40L625.28,312.54Z  M591.37,297.11L591.37,352.33L598.61,352.33L598.61,333.64L625.28,333.64L625.28,343.94C625.28,345.19,624.97,345.62,623.60,345.62C622.34,345.72,618.14,345.72,613.41,345.51C614.47,347.50,615.41,350.34,615.73,352.33C622.02,352.33,626.54,352.33,629.16,351.07C632.00,349.92,632.74,347.93,632.74,343.94L632.74,297.11L615.51,297.11L615.51,271.80L608.27,271.80L608.27,297.11Z  M548.63,319.37C548.32,337.85,547.26,354.12,540.54,364.31C542.12,365.36,545.16,367.67,546.22,368.82C550.00,362.73,552.30,355.06,553.67,346.25C562.80,362.94,578.03,365.99,600.50,365.99L635.78,365.99C636.30,363.68,637.67,360.11,638.93,358.32C632.84,358.53,605.43,358.53,600.61,358.53C588.74,358.53,578.87,357.69,571.10,354.12L571.10,333.64L586.85,333.64L586.85,326.61L571.10,326.61L571.10,311.81L587.69,311.81L587.69,304.77L570.37,304.77L570.37,291.86L585.38,291.86L585.38,284.93L570.37,284.93L570.37,271.90L563.01,271.90L563.01,284.93L546.32,284.93L546.32,291.86L563.01,291.86L563.01,304.77L542.96,304.77L542.96,311.81L563.86,311.81L563.86,349.19C560.18,345.82,557.24,341.20,554.93,335.01C555.35,330.18,555.56,325.14,555.66,319.79Z"/>
		<path d="M713.44,350.34C722.05,354.75,733.18,361.79,739.06,366.30L745.47,361.89C739.48,357.69,728.46,351.07,719.95,346.56Z  M677.22,347.50C671.23,352.86,661.67,358.21,653.07,361.79C654.85,362.94,657.68,365.46,659.05,366.82C667.45,362.83,677.53,356.54,684.14,350.24Z  M667.13,330.29C669.13,329.44,672.17,328.92,693.07,327.13C684.57,331.33,677.42,334.38,673.96,335.64C667.87,338.16,663.46,339.63,660.00,339.94C660.84,341.94,661.88,345.62,662.20,347.19C665.03,346.14,669.02,345.72,697.06,343.62L697.06,359.89C697.06,361.15,696.75,361.47,695.07,361.57C693.49,361.68,688.13,361.68,681.94,361.47C683.10,363.46,684.36,366.30,684.77,368.40C692.44,368.40,697.48,368.30,700.74,367.25C704.10,366.09,704.93,364.20,704.93,360.11L704.93,343.10L731.50,341.20C734.75,344.25,737.49,347.19,739.38,349.61L746.20,346.25C741.26,340.15,731.18,331.44,722.89,325.45L716.49,328.50C719.32,330.60,722.37,333.12,725.30,335.64L683.51,338.16C697.06,332.81,710.71,326.08,724.04,317.89L718.69,312.54C714.60,315.27,710.18,318.00,705.77,320.42L683.93,322.10C690.24,319.15,696.64,315.58,702.62,311.60L696.85,307.19C688.24,313.69,676.79,319.37,673.23,320.83C669.97,322.31,667.35,323.14,665.03,323.46C665.88,325.35,666.82,328.81,667.13,330.29Z  M659.05,279.47L659.05,305.19L651.80,306.03L652.64,313.27C665.25,311.38,683.51,308.76,700.84,306.13L700.63,299.73L684.04,301.94L684.04,289.75L700.42,289.75L700.42,283.25L684.04,283.25L684.04,271.80L676.38,271.80L676.38,302.99L666.19,304.25L666.19,279.47Z  M737.90,278.20C732.02,281.36,722.05,284.61,712.50,287.13L712.50,271.80L704.83,271.80L704.83,299.62C704.83,307.71,707.35,309.81,717.64,309.81C719.85,309.81,733.91,309.81,736.33,309.81C744.21,309.81,746.62,306.98,747.57,296.06C745.36,295.63,742.32,294.48,740.53,293.43C740.22,301.73,739.38,303.09,735.60,303.09C732.44,303.09,720.58,303.09,718.38,303.09C713.34,303.09,712.50,302.56,712.50,299.52L712.50,293.64C723.31,291.12,735.38,287.65,744.00,283.88Z"/>
		<path d="M811.47,295.74L842.24,295.74L842.24,304.14L811.47,304.14Z  M811.47,281.99L842.24,281.99L842.24,290.07L811.47,290.07Z  M804.23,276.00L804.23,310.12L849.90,310.12L849.90,276.00Z  M794.99,316.43L794.99,322.94L808.85,322.94C804.64,331.75,798.03,339.21,790.26,344.25C791.73,345.51,794.36,347.93,795.40,349.29C799.92,345.93,804.33,341.73,808.11,336.80L816.93,336.80C811.68,346.77,803.38,355.49,794.36,361.26C795.83,362.42,798.13,365.04,799.08,366.40C808.95,359.37,818.40,348.87,824.17,336.80L833.10,336.80C829.32,347.71,822.81,357.27,814.73,363.57C816.30,364.62,818.82,367.04,819.98,368.08C828.59,360.74,835.83,349.61,840.13,336.80L847.17,336.80C846.23,352.86,844.86,359.16,843.28,360.94C842.55,361.79,841.71,362.00,840.35,362.00C838.98,362.00,835.83,361.89,832.26,361.57C833.21,363.36,833.94,366.19,834.15,368.19C837.83,368.50,841.61,368.40,843.71,368.19C846.12,367.98,847.80,367.35,849.38,365.56C851.89,362.62,853.37,354.75,854.62,333.54C854.73,332.49,854.94,330.39,854.94,330.39L812.41,330.39C813.88,327.98,815.14,325.56,816.30,322.94L858.40,322.94L858.40,316.43Z  M766.00,276.31L766.00,368.40L773.04,368.40L773.04,283.45L786.79,283.45C784.59,290.60,781.44,300.15,778.39,307.81C785.96,316.00,787.95,323.04,787.95,328.81C787.95,331.96,787.32,334.80,785.75,335.95C784.90,336.58,783.75,336.80,782.38,336.90C780.71,337.00,778.71,336.90,776.29,336.80C777.45,338.79,778.18,341.83,778.29,343.73C780.60,343.83,783.23,343.73,785.33,343.51C787.53,343.31,789.32,342.68,790.78,341.62C793.73,339.63,794.99,335.22,794.99,329.55C794.99,323.04,793.20,315.58,785.53,306.87C789.11,298.47,792.99,287.76,796.03,279.05L790.89,276.00L789.74,276.31Z"/>
	</g>
	<g aria-label="THE SECRECT JOURNAL OF ZHAO ZIYANG">
		<path d="M185.38,503.60l0.00-6.60l23.20,0.00l0.00,6.60l-7.84,0.00l0.00,26.40l-7.52,0.00l0.00-26.40l-7.84,0.00z"/>
		<path d="M223.82,516.76l0.00,13.24l-7.52,0.00l0.00-33.00l7.52,0.00l0.00,13.16l10.64,0.00l0.00-13.16l7.52,0.00l0.00,33.00l-7.52,0.00l0.00-13.24l-10.64,0.00z"/>
		<path d="M270.66,497.00l0.00,6.60l-11.36,0.00l0.00,6.56l10.88,0.00l0.00,6.60l-10.88,0.00l0.00,6.64l11.36,0.00l0.00,6.60l-18.88,0.00l0.00-33.00l18.88,0.00z"/>
		<path d="M307.26,496.40c6.00,0.00,10.24,3.12,10.24,3.12l-3.04,6.00s-3.28-2.28-6.68-2.28c-2.56,0.00-3.92,1.16-3.92,2.96c0.00,1.84,3.12,3.16,6.88,4.76c3.68,1.56,7.72,4.68,7.72,9.00c0.00,7.88-6.00,10.64-12.44,10.64c-7.72,0.00-12.40-4.36-12.40-4.36l3.76-6.32s4.40,3.72,8.08,3.72c1.64,0.00,4.76-0.16,4.76-3.24c0.00-2.40-3.52-3.48-7.44-5.44c-3.96-1.96-6.28-5.04-6.28-8.48c0.00-6.16,5.44-10.08,10.76-10.08z"/>
		<path d="M345.86,497.00l0.00,6.60l-11.36,0.00l0.00,6.56l10.88,0.00l0.00,6.60l-10.88,0.00l0.00,6.64l11.36,0.00l0.00,6.60l-18.88,0.00l0.00-33.00l18.88,0.00z"/>
		<path d="M372.74,523.20c3.84,0.00,6.48-2.04,6.48-2.04l3.20,6.40s-3.68,3.04-10.84,3.04c-9.32,0.00-17.88-7.60-17.88-17.04c0.00-9.48,8.52-17.16,17.88-17.16c7.16,0.00,10.84,3.04,10.84,3.04l-3.20,6.40s-2.64-2.04-6.48-2.04c-7.56,0.00-10.88,5.28-10.88,9.68c0.00,4.44,3.32,9.72,10.88,9.72z"/>
		<path d="M390.30,497.00l11.80,0.00c6.12,0.00,10.76,3.32,10.76,9.80c0.00,4.96-2.72,8.28-6.76,9.56l11.36,13.64l-9.56,0.00l-10.08-13.04l0.00,13.04l-7.52,0.00l0.00-33.00z  M397.82,511.64l0.88,0.00c2.84,0.00,6.24-0.20,6.24-4.32s-3.40-4.32-6.24-4.32l-0.88,0.00l0.00,8.64z"/>
		<path d="M442.82,497.00l0.00,6.60l-11.36,0.00l0.00,6.56l10.88,0.00l0.00,6.60l-10.88,0.00l0.00,6.64l11.36,0.00l0.00,6.60l-18.88,0.00l0.00-33.00l18.88,0.00z"/>
		<path d="M469.70,523.20c3.84,0.00,6.48-2.04,6.48-2.04l3.20,6.40s-3.68,3.04-10.84,3.04c-9.32,0.00-17.88-7.60-17.88-17.04c0.00-9.48,8.52-17.16,17.88-17.16c7.16,0.00,10.84,3.04,10.84,3.04l-3.20,6.40s-2.64-2.04-6.48-2.04c-7.56,0.00-10.88,5.28-10.88,9.68c0.00,4.44,3.32,9.72,10.88,9.72z"/>
		<path d="M485.18,503.60l0.00-6.60l23.20,0.00l0.00,6.60l-7.84,0.00l0.00,26.40l-7.52,0.00l0.00-26.40l-7.84,0.00z"/>
		<path d="M546.38,497.00l0.00,23.68c0.00,6.48-3.68,9.92-10.28,9.92c-4.72,0.00-7.72-3.16-7.72-3.16l2.40-6.28s2.36,2.24,4.28,2.24c2.16,0.00,3.80-1.32,3.80-4.64l0.00-21.76l7.52,0.00z"/>
		<path d="M554.30,513.48c0.00-9.64,7.56-17.08,16.64-17.08c9.16,0.00,16.60,7.44,16.60,17.08s-7.12,17.12-16.60,17.12c-9.76,0.00-16.64-7.48-16.64-17.12z  M562.42,513.48c0.00,4.92,2.36,9.84,8.52,9.84c6.00,0.00,8.48-4.92,8.48-9.84s-2.64-9.84-8.48-9.84c-5.80,0.00-8.52,4.92-8.52,9.84z"/>
		<path d="M621.22,497.00l0.00,21.28c0.00,8.16-4.48,12.32-12.88,12.32s-12.88-4.16-12.88-12.32l0.00-21.28l7.52,0.00l0.00,19.08c0.00,5.52,1.68,7.12,5.36,7.12s5.36-1.60,5.36-7.12l0.00-19.08l7.52,0.00z"/>
		<path d="M630.62,497.00l11.80,0.00c6.12,0.00,10.76,3.32,10.76,9.80c0.00,4.96-2.72,8.28-6.76,9.56l11.36,13.64l-9.56,0.00l-10.08-13.04l0.00,13.04l-7.52,0.00l0.00-33.00z  M638.14,511.64l0.88,0.00c2.84,0.00,6.24-0.20,6.24-4.32s-3.40-4.32-6.24-4.32l-0.88,0.00l0.00,8.64z"/>
		<path d="M671.78,509.52l0.00,20.48l-7.52,0.00l0.00-33.00l7.52,0.00l13.12,20.48l0.08,0.00l0.00-20.48l7.52,0.00l0.00,33.00l-7.52,0.00l-13.12-20.48l-0.08,0.00z"/>
		<path d="M719.06,497.00l13.32,33.00l-8.08,0.00l-2.44-6.60l-12.56,0.00l-2.44,6.60l-8.08,0.00l13.32-33.00l6.96,0.00z  M719.30,516.80l-3.68-9.60l-0.08,0.00l-3.68,9.60l7.44,0.00z"/>
		<path d="M746.18,497.00l0.00,26.40l11.36,0.00l0.00,6.60l-18.88,0.00l0.00-33.00l7.52,0.00z"/>
		<path d="M780.70,513.48c0.00-9.64,7.56-17.08,16.64-17.08c9.16,0.00,16.60,7.44,16.60,17.08s-7.12,17.12-16.60,17.12c-9.76,0.00-16.64-7.48-16.64-17.12z  M788.82,513.48c0.00,4.92,2.36,9.84,8.52,9.84c6.00,0.00,8.48-4.92,8.48-9.84s-2.64-9.84-8.48-9.84c-5.80,0.00-8.52,4.92-8.52,9.84z"/>
		<path d="M841.34,497.00l0.00,6.60l-11.56,0.00l0.00,6.56l10.68,0.00l0.00,6.60l-10.68,0.00l0.00,13.24l-7.52,0.00l0.00-33.00l19.08,0.00z"/>
		<path d="M893.58,497.00l-16.36,26.40l15.28,0.00l0.00,6.60l-28.40,0.00l16.32-26.40l-14.00,0.00l0.00-6.60l27.16,0.00z"/>
		<path d="M909.14,516.76l0.00,13.24l-7.52,0.00l0.00-33.00l7.52,0.00l0.00,13.16l10.64,0.00l0.00-13.16l7.52,0.00l0.00,33.00l-7.52,0.00l0.00-13.24l-10.64,0.00z"/>
		<path d="M953.86,497.00l13.32,33.00l-8.08,0.00l-2.44-6.60l-12.56,0.00l-2.44,6.60l-8.08,0.00l13.32-33.00l6.96,0.00z  M954.10,516.80l-3.68-9.60l-0.08,0.00l-3.68,9.60l7.44,0.00z"/>
		<path d="M971.98,513.48c0.00-9.64,7.56-17.08,16.64-17.08c9.16,0.00,16.60,7.44,16.60,17.08s-7.12,17.12-16.60,17.12c-9.76,0.00-16.64-7.48-16.64-17.12z  M980.10,513.48c0.00,4.92,2.36,9.84,8.52,9.84c6.00,0.00,8.48-4.92,8.48-9.84s-2.64-9.84-8.48-9.84c-5.80,0.00-8.52,4.92-8.52,9.84z"/>
		<path d="M1057.18,497.00l-16.36,26.40l15.28,0.00l0.00,6.60l-28.40,0.00l16.32-26.40l-14.00,0.00l0.00-6.60l27.16,0.00z"/>
		<path d="M1072.74,497.00l0.00,33.00l-7.52,0.00l0.00-33.00l7.52,0.00z"/>
		<path d="M1075.34,497.00l9.04,0.00l6.88,10.56l6.88-10.56l9.04,0.00l-12.16,18.20l0.00,14.80l-7.52,0.00l0.00-14.80z"/>
		<path d="M1126.54,497.00l13.32,33.00l-8.08,0.00l-2.44-6.60l-12.56,0.00l-2.44,6.60l-8.08,0.00l13.32-33.00l6.96,0.00z  M1126.78,516.80l-3.68-9.60l-0.08,0.00l-3.68,9.60l7.44,0.00z"/>
		<path d="M1153.66,509.52l0.00,20.48l-7.52,0.00l0.00-33.00l7.52,0.00l13.12,20.48l0.08,0.00l0.00-20.48l7.52,0.00l0.00,33.00l-7.52,0.00l-13.12-20.48l-0.08,0.00z"/>
		<path d="M1214.02,511.52l0.00,7.16c-1.80,8.36-8.76,11.92-15.24,11.92c-8.88,0.00-16.08-7.64-16.08-17.08c0.00-9.48,6.80-17.12,16.08-17.12c5.80,0.00,9.84,2.16,12.72,5.64l-4.92,5.40c-1.92-3.08-4.44-4.24-7.36-4.24c-4.64,0.00-8.40,4.60-8.40,10.32c0.00,5.60,3.76,10.16,8.40,10.16c3.60,0.00,7.16-2.32,7.16-6.36l-7.60,0.00l0.00-5.80l15.24,0.00z"/>
	</g>
	<g aria-label="杜導正  序">
		<path d="M587.00,658.00L587.00,667.65L578.90,667.65L578.90,671.25L586.50,671.25C584.75,678.20,581.25,686.00,577.75,690.20C578.35,691.05,579.30,692.55,579.70,693.60C582.40,690.20,585.05,684.60,587.00,678.80L587.00,703.95L590.65,703.95L590.65,678.35C592.00,680.85,593.40,683.65,594.00,685.20L596.40,682.35C595.60,680.95,592.20,675.60,590.65,673.30L590.65,671.25L597.30,671.25L597.30,667.65L590.65,667.65L590.65,658.00Z  M607.90,658.50L607.90,673.75L597.85,673.75L597.85,677.35L607.90,677.35L607.90,698.10L595.10,698.10L595.10,701.75L624.30,701.75L624.30,698.10L611.75,698.10L611.75,677.35L622.55,677.35L622.55,673.75L611.75,673.75L611.75,658.50Z"/>
		<path d="M653.35,674.10L670.75,674.10L670.75,676.40L653.35,676.40Z  M653.35,678.40L670.75,678.40L670.75,680.80L653.35,680.80Z  M653.35,669.90L670.75,669.90L670.75,672.10L653.35,672.10Z  M637.30,658.90C638.50,660.40,639.90,662.60,640.55,663.95L643.80,662.95C643.05,661.60,641.70,659.60,640.40,658.10Z  M664.00,688.25L664.00,690.95L634.05,690.95L634.05,693.95L664.00,693.95L664.00,699.70C664.00,700.35,663.80,700.50,663.00,700.55C662.15,700.55,659.35,700.60,656.15,700.50C656.65,701.45,657.20,702.80,657.40,703.75C661.50,703.75,664.05,703.75,665.65,703.20C667.25,702.65,667.65,701.70,667.65,699.75L667.65,693.95L678.35,693.95L678.35,690.95L667.65,690.95L667.65,688.25Z  M643.40,696.05C645.95,697.90,648.85,700.65,650.15,702.55L652.90,700.20C651.50,698.35,648.55,695.70,646.00,693.95Z  M668.70,658.00C668.10,659.30,667.05,661.20,666.10,662.60L657.90,662.60L658.65,662.35C658.20,661.10,657.00,659.20,655.90,657.90L652.90,658.80C653.75,659.95,654.60,661.40,655.15,662.60L646.80,662.60L646.80,665.35L659.90,665.35L658.95,667.85L650.15,667.85L650.15,682.85L674.05,682.85L674.05,667.85L662.30,667.85L663.55,665.35L678.00,665.35L678.00,662.60L669.65,662.60C670.50,661.45,671.40,660.10,672.25,658.75Z  M635.70,676.80C636.05,676.40,637.40,676.10,638.60,676.10L643.20,676.10C641.30,680.60,637.85,684.15,634.10,686.25C634.75,686.75,635.75,688.15,636.10,688.90C638.65,687.35,641.05,685.20,643.05,682.50C646.05,687.05,650.85,687.85,660.00,687.85C666.10,687.85,673.25,687.65,678.35,687.40C678.50,686.45,678.95,684.90,679.45,684.10C673.95,684.65,665.95,684.80,659.95,684.80C651.75,684.80,647.10,684.30,644.55,680.20C645.70,678.30,646.60,676.20,647.30,673.90L645.90,672.90L645.30,673.05L640.05,673.05C642.55,670.70,645.50,667.70,647.20,665.75L644.95,664.45L643.95,664.85L634.75,664.85L634.75,667.90L641.30,667.90C639.55,669.70,637.60,671.65,636.75,672.40C635.85,673.20,635.05,673.50,634.40,673.65C634.80,674.35,635.50,675.95,635.70,676.80Z"/>
		<path d="M695.70,674.50L695.70,698.10L688.90,698.10L688.90,701.75L733.80,701.75L733.80,698.10L714.55,698.10L714.55,682.35L730.20,682.35L730.20,678.70L714.55,678.70L714.55,665.35L732.15,665.35L732.15,661.65L690.80,661.65L690.80,665.35L710.60,665.35L710.60,698.10L699.55,698.10L699.55,674.50Z"/>
		<path d="M792.25,678.15C795.60,679.60,799.60,681.50,802.85,683.20L785.20,683.20L785.20,686.45L800.80,686.45L800.80,699.60C800.80,700.35,800.55,700.55,799.55,700.60C798.60,700.65,795.25,700.65,791.55,700.55C792.05,701.60,792.65,703.00,792.85,704.05C797.35,704.05,800.35,704.05,802.15,703.50C804.00,702.95,804.55,701.90,804.55,699.65L804.55,686.45L815.35,686.45C813.65,688.75,811.75,691.10,810.15,692.70L813.15,694.20C815.75,691.70,818.55,687.75,821.15,684.15L818.45,683.00L817.80,683.20L808.55,683.20L808.95,682.80C807.95,682.20,806.60,681.50,805.15,680.80C809.30,678.55,813.60,675.35,816.55,672.30L814.10,670.45L813.25,670.65L788.10,670.65L788.10,673.75L809.90,673.75C807.60,675.75,804.65,677.80,801.90,679.20C799.40,678.05,796.75,676.90,794.50,675.95Z  M797.25,658.80C798.00,660.25,798.90,662.05,799.55,663.60L779.70,663.60L779.70,677.50C779.70,684.75,779.35,694.90,775.25,702.05C776.10,702.45,777.75,703.50,778.40,704.15C782.70,696.55,783.35,685.25,783.35,677.50L783.35,667.10L821.25,667.10L821.25,663.60L803.85,663.60C803.15,661.95,801.90,659.55,800.85,657.75Z"/>
	</g>
	<g aria-label="鮑彤  導言">
		<path d="M594.65,772.30C596.05,775.05,597.45,778.70,597.95,781.05L600.55,780.15C599.95,777.80,598.50,774.15,597.00,771.45Z  M590.15,772.70C591.20,775.40,592.05,779.00,592.20,781.35L594.80,780.75C594.55,778.45,593.65,774.85,592.60,772.15Z  M585.85,772.75C586.35,775.70,586.60,779.45,586.40,781.95L589.10,781.55C589.20,779.10,588.95,775.35,588.35,772.40Z  M581.55,772.30C581.15,776.25,580.20,780.25,578.00,782.55L580.50,784.05C582.95,781.50,583.75,777.15,584.25,772.95Z  M591.30,745.50C590.60,747.30,589.75,749.20,588.90,750.65L583.80,750.65C584.70,748.95,585.45,747.25,586.10,745.50Z  M605.75,738.05C604.50,742.95,602.05,749.20,597.95,754.05L597.95,750.65L592.25,750.65C593.50,748.50,594.75,746.00,595.70,743.75L593.45,742.30L592.85,742.50L587.15,742.50C587.60,741.15,588.00,739.80,588.35,738.50L584.95,738.05C583.80,742.75,581.60,748.95,577.90,753.60C578.70,754.00,579.95,755.00,580.55,755.75L581.15,754.95L581.15,770.00L597.95,770.00L597.95,754.65C598.80,755.10,599.85,756.05,600.40,756.70C601.05,755.90,601.70,755.05,602.30,754.20L602.30,777.95C602.30,782.60,603.80,783.70,608.65,783.70C609.75,783.70,617.60,783.70,618.80,783.70C623.20,783.70,624.30,781.75,624.80,775.20C623.80,774.95,622.45,774.40,621.60,773.80C621.35,779.35,620.95,780.45,618.60,780.45C616.90,780.45,610.20,780.45,608.90,780.45C606.15,780.45,605.70,780.00,605.70,777.95L605.70,766.90L615.70,766.90L615.70,752.65L603.35,752.65C604.30,751.15,605.15,749.60,605.90,748.00L620.00,748.00C619.75,762.65,619.40,767.60,618.65,768.75C618.30,769.35,617.90,769.45,617.25,769.45C616.55,769.45,614.95,769.45,613.20,769.30C613.65,770.20,614.00,771.55,614.05,772.55C615.95,772.65,617.75,772.65,618.85,772.50C620.10,772.35,620.90,771.95,621.65,770.95C622.75,769.25,623.05,763.50,623.40,746.30C623.40,745.85,623.40,744.65,623.40,744.65L607.35,744.65C608.15,742.55,608.85,740.50,609.40,738.55Z  M584.20,761.75L588.05,761.75L588.05,766.90L584.20,766.90Z  M590.80,761.75L594.80,761.75L594.80,766.90L590.80,766.90Z  M584.20,753.75L588.05,753.75L588.05,758.80L584.20,758.80Z  M590.80,753.75L594.80,753.75L594.80,758.80L590.80,758.80Z  M605.70,755.90L612.50,755.90L612.50,763.60L605.70,763.60Z"/>
		<path d="M643.20,748.50C645.45,751.50,647.70,755.55,648.45,758.25L651.55,756.80C650.75,754.05,648.40,750.10,646.10,747.20Z  M673.40,738.95C670.55,742.85,665.25,747.05,660.90,749.45C661.90,750.10,663.00,751.25,663.65,752.05C668.30,749.25,673.55,744.85,676.95,740.45Z  M674.60,752.20C671.65,756.75,666.15,761.35,661.00,763.90C661.95,764.60,663.00,765.75,663.60,766.65C669.15,763.60,674.70,758.80,678.10,753.55Z  M675.70,765.85C672.55,772.35,666.35,777.95,659.20,781.00C660.10,781.80,661.25,783.10,661.85,784.05C669.45,780.45,675.75,774.50,679.40,767.25Z  M633.85,759.80L633.85,763.45L638.20,763.45C638.10,769.70,637.35,776.95,633.35,782.00C634.25,782.40,635.75,783.40,636.35,784.00C640.65,778.60,641.55,770.30,641.70,763.45L654.50,763.45L654.50,778.60C654.50,779.30,654.25,779.50,653.60,779.55C653.00,779.55,650.85,779.55,648.70,779.50C649.15,780.40,649.65,782.00,649.80,782.90C652.95,782.95,655.00,782.85,656.35,782.30C657.65,781.70,658.05,780.65,658.05,778.60L658.05,763.45L661.65,763.45L661.65,759.80L658.05,759.80L658.05,740.60L638.20,740.60L638.20,759.80Z  M641.70,744.05L654.50,744.05L654.50,759.80L641.70,759.80Z"/>
		<path d="M740.75,754.10L758.15,754.10L758.15,756.40L740.75,756.40Z  M740.75,758.40L758.15,758.40L758.15,760.80L740.75,760.80Z  M740.75,749.90L758.15,749.90L758.15,752.10L740.75,752.10Z  M724.70,738.90C725.90,740.40,727.30,742.60,727.95,743.95L731.20,742.95C730.45,741.60,729.10,739.60,727.80,738.10Z  M751.40,768.25L751.40,770.95L721.45,770.95L721.45,773.95L751.40,773.95L751.40,779.70C751.40,780.35,751.20,780.50,750.40,780.55C749.55,780.55,746.75,780.60,743.55,780.50C744.05,781.45,744.60,782.80,744.80,783.75C748.90,783.75,751.45,783.75,753.05,783.20C754.65,782.65,755.05,781.70,755.05,779.75L755.05,773.95L765.75,773.95L765.75,770.95L755.05,770.95L755.05,768.25Z  M730.80,776.05C733.35,777.90,736.25,780.65,737.55,782.55L740.30,780.20C738.90,778.35,735.95,775.70,733.40,773.95Z  M756.10,738.00C755.50,739.30,754.45,741.20,753.50,742.60L745.30,742.60L746.05,742.35C745.60,741.10,744.40,739.20,743.30,737.90L740.30,738.80C741.15,739.95,742.00,741.40,742.55,742.60L734.20,742.60L734.20,745.35L747.30,745.35L746.35,747.85L737.55,747.85L737.55,762.85L761.45,762.85L761.45,747.85L749.70,747.85L750.95,745.35L765.40,745.35L765.40,742.60L757.05,742.60C757.90,741.45,758.80,740.10,759.65,738.75Z  M723.10,756.80C723.45,756.40,724.80,756.10,726.00,756.10L730.60,756.10C728.70,760.60,725.25,764.15,721.50,766.25C722.15,766.75,723.15,768.15,723.50,768.90C726.05,767.35,728.45,765.20,730.45,762.50C733.45,767.05,738.25,767.85,747.40,767.85C753.50,767.85,760.65,767.65,765.75,767.40C765.90,766.45,766.35,764.90,766.85,764.10C761.35,764.65,753.35,764.80,747.35,764.80C739.15,764.80,734.50,764.30,731.95,760.20C733.10,758.30,734.00,756.20,734.70,753.90L733.30,752.90L732.70,753.05L727.45,753.05C729.95,750.70,732.90,747.70,734.60,745.75L732.35,744.45L731.35,744.85L722.15,744.85L722.15,747.90L728.70,747.90C726.95,749.70,725.00,751.65,724.15,752.40C723.25,753.20,722.45,753.50,721.80,753.65C722.20,754.35,722.90,755.95,723.10,756.80Z"/>
		<path d="M783.70,760.40L783.70,763.50L813.85,763.50L813.85,760.40Z  M783.70,752.90L783.70,756.00L813.85,756.00L813.85,752.90Z  M783.20,768.25L783.20,783.95L786.90,783.95L786.90,781.85L810.60,781.85L810.60,783.80L814.40,783.80L814.40,768.25Z  M786.90,778.65L786.90,771.45L810.60,771.45L810.60,778.65Z  M794.30,739.00C796.05,740.95,797.85,743.60,798.85,745.50L776.40,745.50L776.40,748.80L821.25,748.80L821.25,745.50L801.15,745.50L802.95,744.90C802.00,742.95,799.90,740.05,797.95,737.90Z"/>
	</g>
	<g aria-label="羅德里克•麥克法夸爾  代後記">
		<path d="M361.25,822.85L369.80,822.85L369.80,827.90L361.25,827.90Z  M349.35,822.85L357.80,822.85L357.80,827.90L349.35,827.90Z  M337.75,822.85L345.90,822.85L345.90,827.90L337.75,827.90Z  M339.70,853.55C340.50,856.30,341.20,859.85,341.25,862.25L344.20,861.70C344.10,859.35,343.40,855.85,342.55,853.05Z  M334.35,853.20C333.90,856.50,333.15,860.00,331.85,862.40C332.65,862.55,334.05,862.90,334.80,863.20C335.95,860.80,336.90,857.05,337.45,853.60Z  M345.45,852.80C346.85,855.30,348.25,858.60,348.70,860.80L351.60,860.10C351.05,857.90,349.60,854.65,348.15,852.15Z  M333.25,851.70C334.30,851.25,336.05,850.95,348.40,849.65C348.75,850.60,349.00,851.55,349.20,852.30L351.95,851.20C351.40,848.90,349.80,845.35,348.20,842.60L345.55,843.55C346.20,844.65,346.80,845.90,347.35,847.10L338.50,847.95C342.50,844.65,346.45,840.60,349.90,836.45L346.95,834.80C345.95,836.20,344.80,837.60,343.65,838.95L337.85,839.30C340.10,837.15,342.30,834.55,344.15,831.85L341.60,830.75L373.55,830.75L373.55,819.95L334.15,819.95L334.15,830.75L340.70,830.75C338.65,834.15,335.65,837.55,334.70,838.40C333.75,839.35,332.95,839.90,332.10,840.05C332.55,840.80,333.10,842.25,333.30,842.80C334.05,842.55,335.20,842.35,341.00,841.80C338.80,844.05,336.85,845.85,335.95,846.55C334.40,847.90,333.15,848.75,332.05,848.90C332.55,849.65,333.05,851.10,333.25,851.70Z  M364.75,840.55L364.75,844.70L357.55,844.70L357.55,840.55Z  M363.10,832.40C363.95,833.90,364.80,835.75,365.40,837.40L357.85,837.40C358.85,835.60,359.75,833.75,360.50,831.90L357.10,831.05C355.35,835.75,352.40,840.35,349.10,843.50C349.95,844.00,351.30,845.05,351.95,845.65C352.65,844.90,353.40,844.05,354.10,843.15L354.10,864.05L357.55,864.05L357.55,862.00L376.65,862.00L376.65,858.90L368.15,858.90L368.15,854.65L374.70,854.65L374.70,851.80L368.15,851.80L368.15,847.55L374.70,847.55L374.70,844.70L368.15,844.70L368.15,840.55L375.85,840.55L375.85,837.40L368.80,837.40C368.20,835.55,367.15,833.30,366.05,831.45Z  M364.75,847.55L364.75,851.80L357.55,851.80L357.55,847.55Z  M364.75,854.65L364.75,858.90L357.55,858.90L357.55,854.65Z"/>
		<path d="M399.70,844.55L399.70,847.65L431.85,847.65L431.85,844.55Z  M412.25,849.00C413.55,851.00,415.10,853.75,415.85,855.40L418.80,854.15C418.00,852.60,416.35,849.95,415.05,848.00Z  M407.10,851.50L407.10,859.10C407.10,862.45,408.15,863.35,412.35,863.35C413.30,863.35,418.85,863.35,419.75,863.35C423.15,863.35,424.10,862.05,424.50,856.80C423.55,856.60,422.20,856.10,421.50,855.60C421.30,859.80,421.05,860.35,419.40,860.35C418.20,860.35,413.55,860.35,412.70,860.35C410.75,860.35,410.45,860.15,410.45,859.05L410.45,851.50Z  M402.15,851.20C401.30,854.25,399.65,858.15,397.70,860.55L400.65,862.20C402.65,859.55,404.05,855.50,405.10,852.35Z  M423.95,851.85C425.95,854.90,428.05,859.05,428.90,861.65L431.95,860.30C431.00,857.75,428.80,853.70,426.80,850.70Z  M421.20,831.65L426.55,831.65L426.55,838.45L421.20,838.45Z  M413.20,831.65L418.45,831.65L418.45,838.45L413.20,838.45Z  M405.40,831.65L410.45,831.65L410.45,838.45L405.40,838.45Z  M395.95,818.00C393.60,821.55,389.15,826.15,385.50,829.00C386.10,829.75,387.05,831.20,387.45,832.00C391.45,828.70,396.20,823.70,399.35,819.45Z  M414.05,817.85L413.65,822.10L400.15,822.10L400.15,825.20L413.25,825.20L412.65,828.80L402.35,828.80L402.35,841.30L429.75,841.30L429.75,828.80L416.20,828.80L416.85,825.20L431.60,825.20L431.60,822.10L417.40,822.10L418.00,818.05Z  M396.85,828.85C394.00,834.55,389.50,840.45,385.20,844.30C385.90,845.15,387.05,846.90,387.50,847.70C389.15,846.05,390.90,844.10,392.55,841.95L392.55,864.00L396.10,864.00L396.10,837.05C397.65,834.75,399.05,832.40,400.25,830.05Z"/>
		<path d="M450.25,832.80L462.20,832.80L462.20,839.20L450.25,839.20Z  M465.80,832.80L477.95,832.80L477.95,839.20L465.80,839.20Z  M450.25,823.40L462.20,823.40L462.20,829.65L450.25,829.65Z  M465.80,823.40L477.95,823.40L477.95,829.65L465.80,829.65Z  M444.90,848.35L444.90,851.85L461.95,851.85L461.95,859.05L441.50,859.05L441.50,862.55L486.20,862.55L486.20,859.05L466.00,859.05L466.00,851.85L483.50,851.85L483.50,848.35L466.00,848.35L466.00,842.55L481.85,842.55L481.85,820.00L446.50,820.00L446.50,842.55L461.95,842.55L461.95,848.35Z"/>
		<path d="M506.45,835.40L531.20,835.40L531.20,843.45L506.45,843.45Z  M516.75,817.95L516.75,823.00L497.30,823.00L497.30,826.45L516.75,826.45L516.75,832.05L502.80,832.05L502.80,846.85L510.65,846.85C509.60,853.90,507.00,858.40,495.95,860.65C496.75,861.45,497.80,863.10,498.15,864.10C510.30,861.20,513.50,855.60,514.65,846.85L522.10,846.85L522.10,858.25C522.10,862.35,523.35,863.50,528.05,863.50C529.05,863.50,534.95,863.50,536.00,863.50C540.25,863.50,541.30,861.65,541.75,854.10C540.70,853.80,539.10,853.20,538.25,852.55C538.05,859.00,537.75,859.90,535.70,859.90C534.35,859.90,529.45,859.90,528.45,859.90C526.30,859.90,525.95,859.70,525.95,858.20L525.95,846.85L535.05,846.85L535.05,832.05L520.55,832.05L520.55,826.45L540.50,826.45L540.50,823.00L520.55,823.00L520.55,817.95Z"/>
		<path d="M573.80,835.70C570.85,835.70,568.50,838.05,568.50,841.00C568.50,843.95,570.85,846.30,573.80,846.30C576.75,846.30,579.10,843.95,579.10,841.00C579.10,838.05,576.75,835.70,573.80,835.70Z"/>
		<path d="M626.90,818.00L626.90,821.90L607.30,821.90L607.30,825.20L626.90,825.20L626.90,832.50C622.40,838.30,613.70,843.25,605.30,845.35C606.05,846.10,607.05,847.35,607.55,848.25C615.50,845.85,623.60,840.95,628.65,834.95C633.85,840.60,642.25,845.40,650.05,847.70C650.55,846.75,651.60,845.40,652.35,844.70C644.10,842.65,635.15,837.90,630.55,832.50L630.55,825.20L650.55,825.20L650.55,821.90L630.55,821.90L630.55,818.00Z  M625.45,840.65C622.40,844.65,616.65,849.25,609.00,852.50C609.80,853.05,610.85,854.05,611.35,854.85C614.05,853.60,616.50,852.25,618.70,850.80C621.50,852.10,624.55,853.60,627.55,855.20C622.20,858.30,615.60,860.30,609.15,861.30C609.80,862.05,610.45,863.45,610.80,864.35C617.90,863.05,625.05,860.70,630.85,856.90C635.90,859.60,640.55,862.35,643.60,864.40L646.15,861.60C643.10,859.60,638.65,857.15,633.90,854.70C637.00,852.10,639.60,848.95,641.40,845.20L639.15,844.00L638.55,844.15L626.75,844.15C627.65,843.25,628.40,842.40,629.15,841.50Z  M636.60,846.95C635.10,849.30,633.05,851.30,630.70,853.10C627.60,851.55,624.50,850.05,621.60,848.70L623.80,846.95Z  M616.15,826.30C614.35,831.30,610.70,835.45,606.20,838.00C606.95,838.50,608.25,839.65,608.75,840.20C611.40,838.45,613.90,836.20,615.90,833.45C617.75,834.80,619.70,836.40,620.85,837.45L622.90,835.10C621.70,833.90,619.50,832.30,617.50,831.00C618.25,829.75,618.85,828.40,619.35,827.00Z  M640.70,826.20C639.55,829.70,637.25,832.75,634.40,834.85C635.15,835.35,636.40,836.45,636.95,837.00C638.25,835.95,639.50,834.70,640.60,833.25C643.35,835.20,646.35,837.55,647.95,839.20L650.15,836.85C648.35,835.20,645.10,832.70,642.20,830.80C642.90,829.60,643.50,828.30,643.95,826.95Z"/>
		<path d="M671.45,835.40L696.20,835.40L696.20,843.45L671.45,843.45Z  M681.75,817.95L681.75,823.00L662.30,823.00L662.30,826.45L681.75,826.45L681.75,832.05L667.80,832.05L667.80,846.85L675.65,846.85C674.60,853.90,672.00,858.40,660.95,860.65C661.75,861.45,662.80,863.10,663.15,864.10C675.30,861.20,678.50,855.60,679.65,846.85L687.10,846.85L687.10,858.25C687.10,862.35,688.35,863.50,693.05,863.50C694.05,863.50,699.95,863.50,701.00,863.50C705.25,863.50,706.30,861.65,706.75,854.10C705.70,853.80,704.10,853.20,703.25,852.55C703.05,859.00,702.75,859.90,700.70,859.90C699.35,859.90,694.45,859.90,693.45,859.90C691.30,859.90,690.95,859.70,690.95,858.20L690.95,846.85L700.05,846.85L700.05,832.05L685.55,832.05L685.55,826.45L705.50,826.45L705.50,823.00L685.55,823.00L685.55,817.95Z"/>
		<path d="M718.55,821.25C721.90,822.75,726.00,825.15,728.05,826.90L730.20,823.75C728.10,822.10,723.90,819.85,720.65,818.55Z  M715.90,834.85C719.15,836.25,723.15,838.60,725.15,840.25L727.25,837.15C725.20,835.50,721.10,833.35,717.95,832.05Z  M717.60,860.80L720.75,863.35C723.70,858.70,727.20,852.45,729.85,847.15L727.10,844.70C724.20,850.35,720.25,856.95,717.60,860.80Z  M733.10,862.25C734.45,861.65,736.55,861.30,755.25,858.95C756.25,860.80,757.05,862.55,757.55,863.95L760.85,862.25C759.35,858.35,755.55,852.40,752.00,848.00L749.00,849.45C750.50,851.40,752.05,853.65,753.45,855.90L737.60,857.65C740.70,853.45,743.85,848.10,746.45,842.75L760.65,842.75L760.65,839.20L747.45,839.20L747.45,830.15L758.60,830.15L758.60,826.60L747.45,826.60L747.45,818.00L743.70,818.00L743.70,826.60L732.95,826.60L732.95,830.15L743.70,830.15L743.70,839.20L730.75,839.20L730.75,842.75L741.95,842.75C739.45,848.40,736.10,853.75,735.00,855.25C733.75,857.10,732.80,858.25,731.80,858.50C732.25,859.55,732.90,861.45,733.10,862.25Z"/>
		<path d="M789.80,818.00C789.15,820.05,788.25,822.15,787.00,824.25L771.90,824.25L771.90,827.60L784.75,827.60C781.45,831.85,776.85,835.75,770.60,838.60C771.40,839.30,772.40,840.70,772.85,841.60C777.10,839.55,780.70,837.00,783.65,834.25L783.65,837.20L804.05,837.20L804.05,834.20C807.35,837.40,811.45,840.05,815.75,841.85C816.05,840.80,816.75,839.15,817.35,838.20C811.40,836.20,806.00,832.25,802.70,827.60L815.85,827.60L815.85,824.25L791.30,824.25C792.25,822.40,793.05,820.50,793.70,818.65Z  M783.85,834.05C785.95,832.00,787.75,829.85,789.30,827.60L798.75,827.60C800.10,829.90,801.85,832.05,803.90,834.05Z  M775.15,841.95L775.15,845.15L782.95,845.15C782.10,847.90,781.00,850.85,780.00,853.05L784.00,853.00L803.90,853.00C803.05,857.25,802.15,859.35,801.10,860.15C800.55,860.50,799.90,860.55,798.70,860.55C797.40,860.55,793.85,860.50,790.40,860.15C791.00,861.15,791.50,862.55,791.55,863.60C795.00,863.80,798.30,863.80,799.85,863.75C801.75,863.70,802.85,863.50,803.95,862.55C805.60,861.15,806.80,858.10,807.95,851.55C808.15,851.05,808.25,849.90,808.25,849.90L785.20,849.90L786.85,845.15L812.25,845.15L812.25,841.95Z"/>
		<path d="M827.00,821.00L827.00,824.40L846.90,824.40L846.90,831.20L834.10,831.20C836.65,829.55,839.10,827.65,840.90,825.70L837.50,824.50C834.65,827.45,829.90,830.20,825.45,832.00C826.30,832.55,827.70,833.85,828.30,834.50L830.30,833.45L830.30,864.00L833.85,864.00L833.85,834.35L846.90,834.35L846.90,863.75L850.50,863.75L850.50,834.35L864.20,834.35L864.20,859.85C864.20,860.55,863.95,860.80,863.25,860.85C862.40,860.90,859.85,860.90,856.95,860.80C857.40,861.70,857.95,863.10,858.10,864.00C861.90,864.00,864.40,864.00,865.90,863.40C867.35,862.90,867.80,861.90,867.80,859.85L867.80,832.85L869.25,833.90L872.05,831.50C869.20,829.45,864.00,826.45,859.55,824.40L870.90,824.40L870.90,821.00Z  M856.15,826.25C859.10,827.55,862.50,829.40,865.30,831.20L850.50,831.20L850.50,824.40L858.50,824.40Z  M835.60,839.00C836.70,839.55,837.85,840.25,838.95,841.00C837.70,842.65,836.25,844.15,834.75,845.40C835.35,845.70,836.40,846.45,836.80,846.85C838.20,845.60,839.60,844.05,840.90,842.35C842.10,843.25,843.10,844.15,843.85,844.90L845.40,842.85C844.65,842.10,843.55,841.25,842.35,840.35C843.25,838.95,844.05,837.50,844.75,836.05L842.35,835.45C841.80,836.65,841.10,837.85,840.35,839.05C839.25,838.35,838.15,837.70,837.10,837.20Z  M835.50,850.65C836.70,851.35,837.95,852.20,839.15,853.10C837.80,855.10,836.20,856.90,834.45,858.30C835.10,858.65,836.15,859.45,836.60,859.85C838.20,858.45,839.75,856.65,841.15,854.65C842.30,855.60,843.35,856.60,844.10,857.40L845.60,855.35C844.85,854.55,843.75,853.55,842.50,852.55C843.40,851.00,844.20,849.40,844.85,847.70L842.35,847.10C841.80,848.45,841.20,849.80,840.45,851.05C839.30,850.25,838.10,849.50,837.00,848.85Z  M852.05,838.80C853.20,839.40,854.45,840.15,855.65,841.00C854.30,842.70,852.80,844.25,851.25,845.50C851.90,845.85,852.90,846.60,853.35,846.95C854.75,845.70,856.20,844.10,857.55,842.35C858.80,843.30,859.90,844.25,860.65,845.05L862.20,843.05C861.40,842.25,860.25,841.30,858.95,840.35C859.90,838.95,860.70,837.50,861.40,836.05L859.00,835.45C858.45,836.65,857.80,837.85,857.00,839.00C855.90,838.30,854.70,837.60,853.55,837.05Z  M852.20,850.50C853.45,851.20,854.75,852.00,856.00,852.90C854.60,854.90,852.90,856.70,851.15,858.10C851.75,858.45,852.80,859.25,853.25,859.65C854.90,858.20,856.55,856.40,858.00,854.35C859.25,855.30,860.30,856.25,861.10,857.05L862.60,855.00C861.80,854.15,860.70,853.20,859.40,852.25C860.25,850.80,861.05,849.25,861.70,847.65L859.20,847.05C858.70,848.35,858.10,849.60,857.35,850.85C856.15,850.05,854.90,849.25,853.70,848.65Z"/>
		<path d="M946.95,820.85C949.90,823.35,953.40,826.85,955.05,829.10L957.95,827.10C956.25,824.85,952.65,821.45,949.65,819.05Z  M938.60,818.70C938.80,824.00,939.15,829.00,939.60,833.60L927.40,835.15L927.95,838.70L940.00,837.20C941.90,852.90,945.90,863.35,954.20,863.95C956.85,864.10,958.85,861.50,959.95,852.85C959.20,852.50,957.55,851.60,956.80,850.85C956.30,856.65,955.50,859.60,954.05,859.55C948.70,859.00,945.40,850.00,943.70,836.70L958.95,834.80L958.40,831.25L943.30,833.15C942.80,828.70,942.50,823.80,942.35,818.70Z  M926.85,818.50C923.55,826.45,918.00,834.10,912.25,839.00C912.90,839.85,914.05,841.75,914.45,842.60C916.75,840.55,919.00,838.05,921.15,835.30L921.15,863.90L925.00,863.90L925.00,829.80C927.05,826.60,928.90,823.15,930.40,819.65Z"/>
		<path d="M978.40,818.00C976.30,821.55,972.10,825.80,968.35,828.50C968.95,829.15,969.95,830.50,970.45,831.25C974.50,828.20,979.00,823.50,981.80,819.30Z  M983.60,841.05C984.60,840.70,985.85,840.50,992.80,840.05C989.85,844.40,985.35,848.20,980.80,850.70C981.60,851.35,982.85,852.80,983.35,853.50C985.30,852.30,987.30,850.80,989.15,849.15C990.80,851.55,992.80,853.75,995.10,855.65C990.75,858.20,985.65,859.90,980.60,860.90C981.30,861.70,982.10,863.20,982.45,864.15C987.95,862.85,993.40,860.85,998.10,857.90C1002.25,860.70,1007.20,862.80,1012.60,864.05C1013.10,863.10,1014.05,861.65,1014.90,860.85C1009.80,859.85,1005.10,858.10,1001.10,855.75C1004.75,852.90,1007.75,849.35,1009.65,844.95L1007.25,843.80L1006.60,843.95L994.20,843.95C995.25,842.60,996.25,841.20,997.10,839.75L1008.40,839.05C1009.45,840.60,1010.35,842.00,1010.90,843.20L1014.00,841.35C1012.40,838.35,1008.85,833.80,1005.70,830.50L1002.80,832.00C1004.00,833.30,1005.20,834.75,1006.35,836.25L990.25,837.15C996.35,833.85,1002.60,829.60,1008.50,824.70L1005.25,822.90C1003.20,824.75,1000.95,826.55,998.70,828.25L989.40,828.55C992.55,826.10,995.75,822.95,998.60,819.70L995.10,818.15C992.25,822.00,988.00,825.85,986.75,826.85C985.55,827.85,984.50,828.55,983.60,828.70C984.05,829.65,984.60,831.35,984.75,832.15C985.55,831.80,986.90,831.60,994.40,831.25C991.60,833.20,989.20,834.65,988.05,835.25C985.70,836.65,983.95,837.55,982.60,837.70C982.95,838.60,983.50,840.35,983.60,841.05Z  M991.50,846.95L1004.60,846.95C1002.95,849.55,1000.70,851.85,998.05,853.75C995.35,851.80,993.15,849.50,991.50,846.95Z  M979.60,828.20C976.80,833.50,972.25,838.70,967.85,842.15C968.55,842.90,969.65,844.70,970.05,845.45C971.70,844.10,973.35,842.45,974.95,840.65L974.95,864.15L978.55,864.15L978.55,836.25C980.20,834.05,981.70,831.70,982.95,829.40Z"/>
		<path d="M1025.75,832.85L1025.75,835.80L1040.80,835.80L1040.80,832.85Z  M1024.80,839.85L1024.80,842.85L1041.80,842.85L1041.80,839.85Z  M1023.30,825.80L1023.30,828.90L1043.35,828.90L1043.35,825.80Z  M1029.15,819.30C1030.80,821.15,1032.55,823.80,1033.30,825.55L1036.35,823.75C1035.60,822.05,1033.80,819.55,1032.05,817.70Z  M1045.45,820.75L1045.45,824.35L1062.40,824.35L1062.40,837.15L1046.10,837.15L1046.10,857.05C1046.10,861.80,1047.65,863.00,1052.80,863.00C1053.90,863.00,1061.40,863.00,1062.55,863.00C1067.55,863.00,1068.70,860.80,1069.25,852.65C1068.15,852.45,1066.60,851.80,1065.75,851.15C1065.45,858.15,1065.05,859.45,1062.35,859.45C1060.70,859.45,1054.35,859.45,1053.10,859.45C1050.35,859.45,1049.85,859.05,1049.85,857.05L1049.85,840.70L1062.40,840.70L1062.40,843.40L1066.15,843.40L1066.15,820.75Z  M1025.40,846.65L1025.40,863.60L1028.75,863.60L1028.75,861.30L1040.95,861.30L1040.95,846.65Z  M1028.75,849.75L1037.60,849.75L1037.60,858.20L1028.75,858.20Z"/>
	</g>
</svg>
