<?xml version="1.0" encoding="utf-8"?>
<svg xmlns="http://www.w3.org/2000/svg" version="1.1" viewBox="0 0 1400 900">
	<title>The titlepage for the Standard Ebooks edition of Gai Ge LI Cheng, by Ziyang Zhao</title>
	<g aria-label="改革历程">
		<path d="M482.80,72.25L513.70,72.25C510.55,91.90,505.75,108.55,498.40,122.35C491.05,108.25,485.80,91.75,482.20,73.90Z  M403.90,44.50L403.90,55.60L446.05,55.60L446.05,87.40L405.85,87.40L405.85,144.55C405.85,150.10,403.45,152.05,401.20,153.10C403.15,155.95,404.95,161.50,405.70,164.80C409.15,161.95,414.70,159.10,458.35,142.45C457.90,139.90,457.15,135.10,457.00,131.80L417.25,146.05L417.25,98.50L456.85,98.50L456.10,99.40C458.50,101.20,463.00,105.55,464.80,107.50C468.70,102.25,472.30,96.25,475.45,89.65C479.65,105.70,484.90,120.40,491.80,132.85C482.80,145.45,470.80,155.20,454.90,162.40C457.15,164.80,460.45,169.90,461.65,172.60C476.95,164.95,488.95,155.35,498.40,143.35C506.65,155.20,517.00,164.80,529.75,171.25C531.55,168.25,535.00,164.05,537.70,161.80C524.35,155.65,513.70,145.90,505.15,133.45C515.05,117.10,521.35,97.00,525.40,72.25L535.30,72.25L535.30,61.75L486.40,61.75C488.95,53.50,491.20,44.80,493.00,35.95L481.90,34.00C477.25,58.60,469.00,82.45,457.15,98.05L457.15,44.50Z"/>
		<path d="M572.10,88.75L572.10,125.05L616.65,125.05L616.65,137.95L555.30,137.95L555.30,148.30L616.65,148.30L616.65,172.00L628.20,172.00L628.20,148.30L689.85,148.30L689.85,137.95L628.20,137.95L628.20,125.05L674.10,125.05L674.10,88.75L628.20,88.75L628.20,78.40L656.40,78.40L656.40,56.80L687.30,56.80L687.30,47.05L656.40,47.05L656.40,33.85L644.70,33.85L644.70,47.05L600.00,47.05L600.00,33.85L589.05,33.85L589.05,47.05L558.00,47.05L558.00,56.80L589.05,56.80L589.05,78.40L616.65,78.40L616.65,88.75Z  M583.35,98.05L616.65,98.05L616.65,115.90L583.35,115.90Z  M628.20,98.05L662.25,98.05L662.25,115.90L628.20,115.90Z  M644.70,56.80L644.70,69.55L600.00,69.55L600.00,56.80Z"/>
		<path d="M719.75,41.35L719.75,89.20C719.75,112.00,718.85,143.05,707.75,165.25C710.45,166.45,715.55,169.60,717.65,171.55C729.50,148.00,731.15,113.35,731.15,89.20L731.15,52.00L844.55,52.00L844.55,41.35Z  M776.60,59.95C776.45,68.50,776.15,76.90,775.70,84.85L740.75,84.85L740.75,95.50L774.80,95.50C771.95,124.90,763.25,148.90,734.30,163.00C736.85,164.95,740.30,168.70,741.80,171.25C773.15,155.20,782.75,128.35,786.20,95.50L825.20,95.50C823.10,136.60,820.70,152.95,816.35,156.85C814.85,158.65,813.05,158.95,810.05,158.95C806.60,158.95,797.30,158.80,787.85,157.90C789.80,161.05,791.30,165.85,791.45,169.15C800.60,169.75,809.60,169.90,814.40,169.45C819.80,169.00,822.95,167.95,826.10,164.05C831.65,158.05,834.20,139.75,836.60,90.10C836.75,88.60,836.90,84.85,836.90,84.85L787.10,84.85C787.70,76.90,787.85,68.50,788.15,59.95Z"/>
		<path d="M935.80,51.40L982.00,51.40L982.00,79.60L935.80,79.60Z  M925.30,41.65L925.30,89.35L992.80,89.35L992.80,41.65Z  M988.00,94.90C972.55,99.40,944.05,102.25,920.50,103.75C921.70,106.15,922.90,110.05,923.20,112.45C932.65,112.00,943.00,111.40,953.05,110.35L953.05,128.20L923.65,128.20L923.65,137.95L953.05,137.95L953.05,158.20L915.40,158.20L915.40,168.25L1000.90,168.25L1000.90,158.20L964.15,158.20L964.15,137.95L994.60,137.95L994.60,128.20L964.15,128.20L964.15,109.00C975.85,107.65,986.80,105.70,995.50,103.30Z  M912.10,36.10C901.00,41.20,881.05,45.55,863.95,48.40C865.15,50.80,866.80,54.55,867.25,56.95C874.30,56.05,881.80,54.85,889.30,53.35L889.30,76.30L864.85,76.30L864.85,86.80L887.80,86.80C881.80,104.05,871.45,123.55,861.70,134.20C863.65,136.90,866.35,141.40,867.55,144.55C875.20,135.25,883.15,120.40,889.30,105.25L889.30,171.70L900.40,171.70L900.40,107.05C905.50,113.35,911.50,121.45,914.05,125.65L920.80,116.80C917.80,113.35,904.75,99.85,900.40,96.10L900.40,86.80L919.15,86.80L919.15,76.30L900.40,76.30L900.40,50.95C907.60,49.15,914.35,47.05,920.05,44.80Z"/>
	</g>
	<g aria-label="赵紫阳">
		<path d="M548.42,318.84C547.79,337.11,546.11,353.91,539.91,364.31C541.60,365.36,544.75,367.56,546.00,368.61C549.47,362.52,551.67,354.86,553.14,346.04C560.50,361.89,572.88,365.67,595.77,365.67L635.78,365.67C636.30,363.36,637.77,359.69,639.03,357.90C632.63,358.21,600.71,358.11,595.67,358.21C585.90,358.21,578.24,357.48,572.15,355.17L572.15,333.75L587.90,333.75L587.90,326.72L572.15,326.72L572.15,312.12L589.58,312.12L589.58,305.08L570.68,305.08L570.68,291.44L586.64,291.44L586.64,284.40L570.68,284.40L570.68,271.80L563.43,271.80L563.43,284.40L546.11,284.40L546.11,291.44L563.43,291.44L563.43,305.08L542.96,305.08L542.96,312.12L564.90,312.12L564.90,351.07C560.39,347.30,557.13,341.73,554.72,333.64C555.14,329.13,555.56,324.40,555.77,319.47Z  M590.63,287.97C597.03,295.95,603.75,305.30,609.85,314.54C603.65,326.61,596.20,337.11,587.59,345.09C589.37,346.35,592.73,348.98,593.99,350.44C601.76,342.68,608.59,333.01,614.57,321.88C620.13,330.81,624.97,339.42,628.01,346.25L634.73,341.52C631.16,333.75,625.38,323.99,618.66,313.80C623.81,303.19,628.12,291.44,631.68,279.15L624.12,277.47C621.29,287.65,617.83,297.42,613.73,306.56C608.27,298.68,602.39,290.91,596.72,283.98Z"/>
		<path d="M713.44,350.34C722.05,354.75,733.18,361.79,739.06,366.30L745.47,361.89C739.48,357.69,728.46,351.07,719.95,346.56Z  M677.22,347.50C671.23,352.86,661.67,358.21,653.07,361.79C654.85,362.94,657.68,365.46,659.05,366.82C667.45,362.83,677.53,356.54,684.14,350.24Z  M667.13,330.29C669.13,329.44,672.17,328.92,693.07,327.13C684.57,331.33,677.42,334.38,673.96,335.64C667.87,338.16,663.46,339.63,660.00,339.94C660.84,341.94,661.88,345.62,662.20,347.19C665.03,346.14,669.02,345.72,697.06,343.62L697.06,359.89C697.06,361.15,696.75,361.47,695.07,361.57C693.49,361.68,688.13,361.68,681.94,361.47C683.10,363.46,684.36,366.30,684.77,368.40C692.44,368.40,697.48,368.30,700.74,367.25C704.10,366.09,704.93,364.20,704.93,360.11L704.93,343.10L731.50,341.20C734.75,344.25,737.49,347.19,739.38,349.61L746.20,346.25C741.26,340.15,731.18,331.44,722.89,325.45L716.49,328.50C719.32,330.60,722.37,333.12,725.30,335.64L683.51,338.16C697.06,332.81,710.71,326.08,724.04,317.89L718.69,312.54C714.60,315.27,710.18,318.00,705.77,320.42L683.93,322.10C690.24,319.15,696.64,315.58,702.62,311.60L696.85,307.19C688.24,313.69,676.79,319.37,673.23,320.83C669.97,322.31,667.35,323.14,665.03,323.46C665.88,325.35,666.82,328.81,667.13,330.29Z  M659.05,279.47L659.05,305.19L651.80,306.03L652.64,313.27C665.25,311.38,683.51,308.76,700.84,306.13L700.63,299.73L684.04,301.94L684.04,289.75L700.42,289.75L700.42,283.25L684.04,283.25L684.04,271.80L676.38,271.80L676.38,302.99L666.19,304.25L666.19,279.47Z  M737.90,278.20C732.02,281.36,722.05,284.61,712.50,287.13L712.50,271.80L704.83,271.80L704.83,299.62C704.83,307.71,707.35,309.81,717.64,309.81C719.85,309.81,733.91,309.81,736.33,309.81C744.21,309.81,746.62,306.98,747.57,296.06C745.36,295.63,742.32,294.48,740.53,293.43C740.22,301.73,739.38,303.09,735.60,303.09C732.44,303.09,720.58,303.09,718.38,303.09C713.34,303.09,712.50,302.56,712.50,299.52L712.50,293.64C723.31,291.12,735.38,287.65,744.00,283.88Z"/>
		<path d="M806.12,278.20L806.12,367.56L813.67,367.56L813.67,359.48L844.97,359.48L844.97,366.62L852.84,366.62L852.84,278.20Z  M813.67,352.02L813.67,321.36L844.97,321.36L844.97,352.02Z  M813.67,314.01L813.67,285.56L844.97,285.56L844.97,314.01Z  M766.63,276.11L766.63,368.19L773.99,368.19L773.99,283.25L790.26,283.25C787.32,290.38,783.23,299.62,779.24,306.98C789.11,315.27,791.84,322.41,791.94,328.19C791.94,331.55,791.21,334.17,789.21,335.43C787.95,336.17,786.48,336.48,784.90,336.48C782.70,336.69,779.87,336.69,776.82,336.27C778.08,338.37,778.71,341.52,778.82,343.51C781.86,343.73,785.22,343.73,787.85,343.41C790.37,343.10,792.57,342.46,794.36,341.31C797.82,339.11,799.29,334.80,799.29,328.92C799.18,322.31,796.88,314.75,786.90,306.03C791.41,297.94,796.35,287.76,800.34,279.15L795.09,275.79L793.83,276.11Z"/>
	</g>
	<g aria-label="THE SECRECT JOURNAL OF ZHAO ZIYANG">
		<path d="M185.38,503.60l0.00-6.60l23.20,0.00l0.00,6.60l-7.84,0.00l0.00,26.40l-7.52,0.00l0.00-26.40l-7.84,0.00z"/>
		<path d="M223.82,516.76l0.00,13.24l-7.52,0.00l0.00-33.00l7.52,0.00l0.00,13.16l10.64,0.00l0.00-13.16l7.52,0.00l0.00,33.00l-7.52,0.00l0.00-13.24l-10.64,0.00z"/>
		<path d="M270.66,497.00l0.00,6.60l-11.36,0.00l0.00,6.56l10.88,0.00l0.00,6.60l-10.88,0.00l0.00,6.64l11.36,0.00l0.00,6.60l-18.88,0.00l0.00-33.00l18.88,0.00z"/>
		<path d="M307.26,496.40c6.00,0.00,10.24,3.12,10.24,3.12l-3.04,6.00s-3.28-2.28-6.68-2.28c-2.56,0.00-3.92,1.16-3.92,2.96c0.00,1.84,3.12,3.16,6.88,4.76c3.68,1.56,7.72,4.68,7.72,9.00c0.00,7.88-6.00,10.64-12.44,10.64c-7.72,0.00-12.40-4.36-12.40-4.36l3.76-6.32s4.40,3.72,8.08,3.72c1.64,0.00,4.76-0.16,4.76-3.24c0.00-2.40-3.52-3.48-7.44-5.44c-3.96-1.96-6.28-5.04-6.28-8.48c0.00-6.16,5.44-10.08,10.76-10.08z"/>
		<path d="M345.86,497.00l0.00,6.60l-11.36,0.00l0.00,6.56l10.88,0.00l0.00,6.60l-10.88,0.00l0.00,6.64l11.36,0.00l0.00,6.60l-18.88,0.00l0.00-33.00l18.88,0.00z"/>
		<path d="M372.74,523.20c3.84,0.00,6.48-2.04,6.48-2.04l3.20,6.40s-3.68,3.04-10.84,3.04c-9.32,0.00-17.88-7.60-17.88-17.04c0.00-9.48,8.52-17.16,17.88-17.16c7.16,0.00,10.84,3.04,10.84,3.04l-3.20,6.40s-2.64-2.04-6.48-2.04c-7.56,0.00-10.88,5.28-10.88,9.68c0.00,4.44,3.32,9.72,10.88,9.72z"/>
		<path d="M390.30,497.00l11.80,0.00c6.12,0.00,10.76,3.32,10.76,9.80c0.00,4.96-2.72,8.28-6.76,9.56l11.36,13.64l-9.56,0.00l-10.08-13.04l0.00,13.04l-7.52,0.00l0.00-33.00z  M397.82,511.64l0.88,0.00c2.84,0.00,6.24-0.20,6.24-4.32s-3.40-4.32-6.24-4.32l-0.88,0.00l0.00,8.64z"/>
		<path d="M442.82,497.00l0.00,6.60l-11.36,0.00l0.00,6.56l10.88,0.00l0.00,6.60l-10.88,0.00l0.00,6.64l11.36,0.00l0.00,6.60l-18.88,0.00l0.00-33.00l18.88,0.00z"/>
		<path d="M469.70,523.20c3.84,0.00,6.48-2.04,6.48-2.04l3.20,6.40s-3.68,3.04-10.84,3.04c-9.32,0.00-17.88-7.60-17.88-17.04c0.00-9.48,8.52-17.16,17.88-17.16c7.16,0.00,10.84,3.04,10.84,3.04l-3.20,6.40s-2.64-2.04-6.48-2.04c-7.56,0.00-10.88,5.28-10.88,9.68c0.00,4.44,3.32,9.72,10.88,9.72z"/>
		<path d="M485.18,503.60l0.00-6.60l23.20,0.00l0.00,6.60l-7.84,0.00l0.00,26.40l-7.52,0.00l0.00-26.40l-7.84,0.00z"/>
		<path d="M546.38,497.00l0.00,23.68c0.00,6.48-3.68,9.92-10.28,9.92c-4.72,0.00-7.72-3.16-7.72-3.16l2.40-6.28s2.36,2.24,4.28,2.24c2.16,0.00,3.80-1.32,3.80-4.64l0.00-21.76l7.52,0.00z"/>
		<path d="M554.30,513.48c0.00-9.64,7.56-17.08,16.64-17.08c9.16,0.00,16.60,7.44,16.60,17.08s-7.12,17.12-16.60,17.12c-9.76,0.00-16.64-7.48-16.64-17.12z  M562.42,513.48c0.00,4.92,2.36,9.84,8.52,9.84c6.00,0.00,8.48-4.92,8.48-9.84s-2.64-9.84-8.48-9.84c-5.80,0.00-8.52,4.92-8.52,9.84z"/>
		<path d="M621.22,497.00l0.00,21.28c0.00,8.16-4.48,12.32-12.88,12.32s-12.88-4.16-12.88-12.32l0.00-21.28l7.52,0.00l0.00,19.08c0.00,5.52,1.68,7.12,5.36,7.12s5.36-1.60,5.36-7.12l0.00-19.08l7.52,0.00z"/>
		<path d="M630.62,497.00l11.80,0.00c6.12,0.00,10.76,3.32,10.76,9.80c0.00,4.96-2.72,8.28-6.76,9.56l11.36,13.64l-9.56,0.00l-10.08-13.04l0.00,13.04l-7.52,0.00l0.00-33.00z  M638.14,511.64l0.88,0.00c2.84,0.00,6.24-0.20,6.24-4.32s-3.40-4.32-6.24-4.32l-0.88,0.00l0.00,8.64z"/>
		<path d="M671.78,509.52l0.00,20.48l-7.52,0.00l0.00-33.00l7.52,0.00l13.12,20.48l0.08,0.00l0.00-20.48l7.52,0.00l0.00,33.00l-7.52,0.00l-13.12-20.48l-0.08,0.00z"/>
		<path d="M719.06,497.00l13.32,33.00l-8.08,0.00l-2.44-6.60l-12.56,0.00l-2.44,6.60l-8.08,0.00l13.32-33.00l6.96,0.00z  M719.30,516.80l-3.68-9.60l-0.08,0.00l-3.68,9.60l7.44,0.00z"/>
		<path d="M746.18,497.00l0.00,26.40l11.36,0.00l0.00,6.60l-18.88,0.00l0.00-33.00l7.52,0.00z"/>
		<path d="M780.70,513.48c0.00-9.64,7.56-17.08,16.64-17.08c9.16,0.00,16.60,7.44,16.60,17.08s-7.12,17.12-16.60,17.12c-9.76,0.00-16.64-7.48-16.64-17.12z  M788.82,513.48c0.00,4.92,2.36,9.84,8.52,9.84c6.00,0.00,8.48-4.92,8.48-9.84s-2.64-9.84-8.48-9.84c-5.80,0.00-8.52,4.92-8.52,9.84z"/>
		<path d="M841.34,497.00l0.00,6.60l-11.56,0.00l0.00,6.56l10.68,0.00l0.00,6.60l-10.68,0.00l0.00,13.24l-7.52,0.00l0.00-33.00l19.08,0.00z"/>
		<path d="M893.58,497.00l-16.36,26.40l15.28,0.00l0.00,6.60l-28.40,0.00l16.32-26.40l-14.00,0.00l0.00-6.60l27.16,0.00z"/>
		<path d="M909.14,516.76l0.00,13.24l-7.52,0.00l0.00-33.00l7.52,0.00l0.00,13.16l10.64,0.00l0.00-13.16l7.52,0.00l0.00,33.00l-7.52,0.00l0.00-13.24l-10.64,0.00z"/>
		<path d="M953.86,497.00l13.32,33.00l-8.08,0.00l-2.44-6.60l-12.56,0.00l-2.44,6.60l-8.08,0.00l13.32-33.00l6.96,0.00z  M954.10,516.80l-3.68-9.60l-0.08,0.00l-3.68,9.60l7.44,0.00z"/>
		<path d="M971.98,513.48c0.00-9.64,7.56-17.08,16.64-17.08c9.16,0.00,16.60,7.44,16.60,17.08s-7.12,17.12-16.60,17.12c-9.76,0.00-16.64-7.48-16.64-17.12z  M980.10,513.48c0.00,4.92,2.36,9.84,8.52,9.84c6.00,0.00,8.48-4.92,8.48-9.84s-2.64-9.84-8.48-9.84c-5.80,0.00-8.52,4.92-8.52,9.84z"/>
		<path d="M1057.18,497.00l-16.36,26.40l15.28,0.00l0.00,6.60l-28.40,0.00l16.32-26.40l-14.00,0.00l0.00-6.60l27.16,0.00z"/>
		<path d="M1072.74,497.00l0.00,33.00l-7.52,0.00l0.00-33.00l7.52,0.00z"/>
		<path d="M1075.34,497.00l9.04,0.00l6.88,10.56l6.88-10.56l9.04,0.00l-12.16,18.20l0.00,14.80l-7.52,0.00l0.00-14.80z"/>
		<path d="M1126.54,497.00l13.32,33.00l-8.08,0.00l-2.44-6.60l-12.56,0.00l-2.44,6.60l-8.08,0.00l13.32-33.00l6.96,0.00z  M1126.78,516.80l-3.68-9.60l-0.08,0.00l-3.68,9.60l7.44,0.00z"/>
		<path d="M1153.66,509.52l0.00,20.48l-7.52,0.00l0.00-33.00l7.52,0.00l13.12,20.48l0.08,0.00l0.00-20.48l7.52,0.00l0.00,33.00l-7.52,0.00l-13.12-20.48l-0.08,0.00z"/>
		<path d="M1214.02,511.52l0.00,7.16c-1.80,8.36-8.76,11.92-15.24,11.92c-8.88,0.00-16.08-7.64-16.08-17.08c0.00-9.48,6.80-17.12,16.08-17.12c5.80,0.00,9.84,2.16,12.72,5.64l-4.92,5.40c-1.92-3.08-4.44-4.24-7.36-4.24c-4.64,0.00-8.40,4.60-8.40,10.32c0.00,5.60,3.76,10.16,8.40,10.16c3.60,0.00,7.16-2.32,7.16-6.36l-7.60,0.00l0.00-5.80l15.24,0.00z"/>
	</g>
	<g aria-label="杜导正  序">
		<path d="M587.00,658.00L587.00,667.65L578.90,667.65L578.90,671.25L586.50,671.25C584.75,678.20,581.25,686.00,577.75,690.20C578.35,691.05,579.30,692.55,579.70,693.60C582.40,690.20,585.05,684.60,587.00,678.80L587.00,703.95L590.65,703.95L590.65,678.35C592.00,680.85,593.40,683.65,594.00,685.20L596.40,682.35C595.60,680.95,592.20,675.60,590.65,673.30L590.65,671.25L597.30,671.25L597.30,667.65L590.65,667.65L590.65,658.00Z  M607.90,658.50L607.90,673.75L597.85,673.75L597.85,677.35L607.90,677.35L607.90,698.10L595.10,698.10L595.10,701.75L624.30,701.75L624.30,698.10L611.75,698.10L611.75,677.35L622.55,677.35L622.55,673.75L611.75,673.75L611.75,658.50Z"/>
		<path d="M641.85,690.90C645.00,693.50,648.55,697.35,650.00,699.95L652.80,697.45C651.25,695.00,647.85,691.50,644.80,688.95L663.70,688.95L663.70,699.45C663.70,700.20,663.40,700.45,662.40,700.50C661.45,700.50,657.85,700.55,654.15,700.45C654.70,701.40,655.30,702.80,655.50,703.80C660.30,703.80,663.35,703.80,665.15,703.25C666.95,702.75,667.55,701.75,667.55,699.55L667.55,688.95L678.50,688.95L678.50,685.45L667.55,685.45L667.55,681.55L663.70,681.55L663.70,685.45L634.40,685.45L634.40,688.95L644.10,688.95Z  M638.05,661.50L638.05,674.60C638.05,679.30,640.55,680.30,648.80,680.30C650.65,680.30,666.75,680.30,668.75,680.30C675.05,680.30,676.70,679.10,677.35,673.95C676.20,673.80,674.70,673.35,673.70,672.80C673.30,676.50,672.60,677.20,668.50,677.20C665.00,677.20,651.15,677.20,648.50,677.20C642.95,677.20,641.95,676.65,641.95,674.55L641.95,671.90L672.60,671.90L672.60,660.00L638.05,660.00Z  M641.95,663.30L668.90,663.30L668.90,668.55L641.95,668.55Z"/>
		<path d="M695.70,674.50L695.70,698.10L688.90,698.10L688.90,701.75L733.80,701.75L733.80,698.10L714.55,698.10L714.55,682.35L730.20,682.35L730.20,678.70L714.55,678.70L714.55,665.35L732.15,665.35L732.15,661.65L690.80,661.65L690.80,665.35L710.60,665.35L710.60,698.10L699.55,698.10L699.55,674.50Z"/>
		<path d="M792.25,678.15C795.60,679.60,799.60,681.50,802.85,683.20L785.20,683.20L785.20,686.45L800.80,686.45L800.80,699.60C800.80,700.35,800.55,700.55,799.55,700.60C798.60,700.65,795.25,700.65,791.55,700.55C792.05,701.60,792.65,703.00,792.85,704.05C797.35,704.05,800.35,704.05,802.15,703.50C804.00,702.95,804.55,701.90,804.55,699.65L804.55,686.45L815.35,686.45C813.65,688.75,811.75,691.10,810.15,692.70L813.15,694.20C815.75,691.70,818.55,687.75,821.15,684.15L818.45,683.00L817.80,683.20L808.55,683.20L808.95,682.80C807.95,682.20,806.60,681.50,805.15,680.80C809.30,678.55,813.60,675.35,816.55,672.30L814.10,670.45L813.25,670.65L788.10,670.65L788.10,673.75L809.90,673.75C807.60,675.75,804.65,677.80,801.90,679.20C799.40,678.05,796.75,676.90,794.50,675.95Z  M797.25,658.80C798.00,660.25,798.90,662.05,799.55,663.60L779.70,663.60L779.70,677.50C779.70,684.75,779.35,694.90,775.25,702.05C776.10,702.45,777.75,703.50,778.40,704.15C782.70,696.55,783.35,685.25,783.35,677.50L783.35,667.10L821.25,667.10L821.25,663.60L803.85,663.60C803.15,661.95,801.90,659.55,800.85,657.75Z"/>
	</g>
	<g aria-label="鲍彤  导言">
		<path d="M578.70,778.15L579.20,781.55C584.65,780.90,592.05,780.05,599.25,779.15L599.20,776.10C591.60,776.90,583.80,777.70,578.70,778.15Z  M592.85,745.30C592.00,747.25,590.90,749.30,589.90,750.85L583.65,750.85C584.80,749.05,585.85,747.20,586.70,745.30Z  M605.40,738.10C603.85,743.45,601.30,748.75,598.10,752.25L598.10,750.85L593.10,750.85C594.60,748.65,596.15,746.00,597.30,743.65L595.20,742.15L594.55,742.35L587.95,742.35C588.50,741.00,588.95,739.70,589.35,738.40L585.95,737.95C584.65,742.50,582.10,748.25,578.10,752.65C578.90,753.10,580.05,754.05,580.65,754.75L580.75,754.65L580.75,772.60L598.10,772.60L598.10,752.55C598.90,753.20,600.05,754.40,600.50,755.00C601.05,754.35,601.60,753.65,602.15,752.90L602.15,777.55C602.15,782.00,603.50,783.15,608.50,783.15C609.60,783.15,617.50,783.15,618.65,783.15C622.90,783.15,623.95,781.40,624.45,775.60C623.45,775.40,622.05,774.85,621.30,774.25C621.05,779.00,620.65,779.95,618.45,779.95C616.80,779.95,610.00,779.95,608.70,779.95C605.90,779.95,605.45,779.55,605.45,777.50L605.45,767.60L615.20,767.60L615.20,752.20L602.60,752.20C603.70,750.65,604.65,748.90,605.60,747.05L619.10,747.05C619.05,761.80,618.90,767.05,618.15,768.10C617.80,768.70,617.35,768.80,616.70,768.80C615.85,768.80,613.85,768.80,611.65,768.60C612.20,769.45,612.55,770.80,612.60,771.65C614.70,771.80,616.75,771.80,618.00,771.70C619.40,771.55,620.30,771.15,621.10,770.05C622.15,768.45,622.25,762.85,622.35,745.40C622.35,744.95,622.35,743.70,622.35,743.70L607.05,743.70C607.70,742.15,608.25,740.50,608.75,738.90Z  M583.60,763.10L588.10,763.10L588.10,769.60L583.60,769.60Z  M590.60,763.10L595.20,763.10L595.20,769.60L590.60,769.60Z  M583.60,753.85L588.10,753.85L588.10,760.25L583.60,760.25Z  M590.60,753.85L595.20,753.85L595.20,760.25L590.60,760.25Z  M605.45,755.20L612.05,755.20L612.05,764.60L605.45,764.60Z"/>
		<path d="M643.20,748.50C645.45,751.50,647.70,755.55,648.45,758.25L651.55,756.80C650.75,754.05,648.40,750.10,646.10,747.20Z  M673.40,738.95C670.55,742.85,665.25,747.05,660.90,749.45C661.90,750.10,663.00,751.25,663.65,752.05C668.30,749.25,673.55,744.85,676.95,740.45Z  M674.60,752.20C671.65,756.75,666.15,761.35,661.00,763.90C661.95,764.60,663.00,765.75,663.60,766.65C669.15,763.60,674.70,758.80,678.10,753.55Z  M675.70,765.85C672.55,772.35,666.35,777.95,659.20,781.00C660.10,781.80,661.25,783.10,661.85,784.05C669.45,780.45,675.75,774.50,679.40,767.25Z  M633.85,759.80L633.85,763.45L638.20,763.45C638.10,769.70,637.35,776.95,633.35,782.00C634.25,782.40,635.75,783.40,636.35,784.00C640.65,778.60,641.55,770.30,641.70,763.45L654.50,763.45L654.50,778.60C654.50,779.30,654.25,779.50,653.60,779.55C653.00,779.55,650.85,779.55,648.70,779.50C649.15,780.40,649.65,782.00,649.80,782.90C652.95,782.95,655.00,782.85,656.35,782.30C657.65,781.70,658.05,780.65,658.05,778.60L658.05,763.45L661.65,763.45L661.65,759.80L658.05,759.80L658.05,740.60L638.20,740.60L638.20,759.80Z  M641.70,744.05L654.50,744.05L654.50,759.80L641.70,759.80Z"/>
		<path d="M729.25,770.90C732.40,773.50,735.95,777.35,737.40,779.95L740.20,777.45C738.65,775.00,735.25,771.50,732.20,768.95L751.10,768.95L751.10,779.45C751.10,780.20,750.80,780.45,749.80,780.50C748.85,780.50,745.25,780.55,741.55,780.45C742.10,781.40,742.70,782.80,742.90,783.80C747.70,783.80,750.75,783.80,752.55,783.25C754.35,782.75,754.95,781.75,754.95,779.55L754.95,768.95L765.90,768.95L765.90,765.45L754.95,765.45L754.95,761.55L751.10,761.55L751.10,765.45L721.80,765.45L721.80,768.95L731.50,768.95Z  M725.45,741.50L725.45,754.60C725.45,759.30,727.95,760.30,736.20,760.30C738.05,760.30,754.15,760.30,756.15,760.30C762.45,760.30,764.10,759.10,764.75,753.95C763.60,753.80,762.10,753.35,761.10,752.80C760.70,756.50,760.00,757.20,755.90,757.20C752.40,757.20,738.55,757.20,735.90,757.20C730.35,757.20,729.35,756.65,729.35,754.55L729.35,751.90L760.00,751.90L760.00,740.00L725.45,740.00Z  M729.35,743.30L756.30,743.30L756.30,748.55L729.35,748.55Z"/>
		<path d="M783.70,760.40L783.70,763.50L813.85,763.50L813.85,760.40Z  M783.70,752.90L783.70,756.00L813.85,756.00L813.85,752.90Z  M783.20,768.25L783.20,783.95L786.90,783.95L786.90,781.85L810.60,781.85L810.60,783.80L814.40,783.80L814.40,768.25Z  M786.90,778.65L786.90,771.45L810.60,771.45L810.60,778.65Z  M794.30,739.00C796.05,740.95,797.85,743.60,798.85,745.50L776.40,745.50L776.40,748.80L821.25,748.80L821.25,745.50L801.15,745.50L802.95,744.90C802.00,742.95,799.90,740.05,797.95,737.90Z"/>
	</g>
	<g aria-label="罗德里克•麦克法夸尔  代后记">
		<path d="M361.10,823.35L369.60,823.35L369.60,830.90L361.10,830.90Z  M349.35,823.35L357.65,823.35L357.65,830.90L349.35,830.90Z  M337.85,823.35L345.90,823.35L345.90,830.90L337.85,830.90Z  M343.80,847.25C346.70,849.45,350.05,852.55,352.25,855.00C346.50,857.85,339.75,859.65,332.60,860.75C333.40,861.50,334.40,863.15,334.80,864.05C350.65,861.30,364.95,854.90,371.10,840.60L368.60,839.05L367.90,839.20L348.50,839.20C349.70,837.85,350.75,836.40,351.65,835.00L349.10,834.15L373.35,834.15L373.35,820.15L334.25,820.15L334.25,834.15L347.65,834.15C344.90,838.80,339.20,843.55,333.20,846.30C333.90,846.95,335.00,848.35,335.55,849.20C339.00,847.50,342.30,845.15,345.20,842.55L365.80,842.55C363.40,847.00,359.85,850.45,355.50,853.20C353.20,850.70,349.60,847.60,346.65,845.35Z"/>
		<path d="M399.70,844.55L399.70,847.65L431.85,847.65L431.85,844.55Z  M412.25,849.00C413.55,851.00,415.10,853.75,415.85,855.40L418.80,854.15C418.00,852.60,416.35,849.95,415.05,848.00Z  M407.10,851.50L407.10,859.10C407.10,862.45,408.15,863.35,412.35,863.35C413.30,863.35,418.85,863.35,419.75,863.35C423.15,863.35,424.10,862.05,424.50,856.80C423.55,856.60,422.20,856.10,421.50,855.60C421.30,859.80,421.05,860.35,419.40,860.35C418.20,860.35,413.55,860.35,412.70,860.35C410.75,860.35,410.45,860.15,410.45,859.05L410.45,851.50Z  M402.15,851.20C401.30,854.25,399.65,858.15,397.70,860.55L400.65,862.20C402.65,859.55,404.05,855.50,405.10,852.35Z  M423.95,851.85C425.95,854.90,428.05,859.05,428.90,861.65L431.95,860.30C431.00,857.75,428.80,853.70,426.80,850.70Z  M421.20,831.65L426.55,831.65L426.55,838.45L421.20,838.45Z  M413.20,831.65L418.45,831.65L418.45,838.45L413.20,838.45Z  M405.40,831.65L410.45,831.65L410.45,838.45L405.40,838.45Z  M395.95,818.00C393.60,821.55,389.15,826.15,385.50,829.00C386.10,829.75,387.05,831.20,387.45,832.00C391.45,828.70,396.20,823.70,399.35,819.45Z  M414.05,817.85L413.65,822.10L400.15,822.10L400.15,825.20L413.25,825.20L412.65,828.80L402.35,828.80L402.35,841.30L429.75,841.30L429.75,828.80L416.20,828.80L416.85,825.20L431.60,825.20L431.60,822.10L417.40,822.10L418.00,818.05Z  M396.85,828.85C394.00,834.55,389.50,840.45,385.20,844.30C385.90,845.15,387.05,846.90,387.50,847.70C389.15,846.05,390.90,844.10,392.55,841.95L392.55,864.00L396.10,864.00L396.10,837.05C397.65,834.75,399.05,832.40,400.25,830.05Z"/>
		<path d="M450.25,832.80L462.20,832.80L462.20,839.20L450.25,839.20Z  M465.80,832.80L477.95,832.80L477.95,839.20L465.80,839.20Z  M450.25,823.40L462.20,823.40L462.20,829.65L450.25,829.65Z  M465.80,823.40L477.95,823.40L477.95,829.65L465.80,829.65Z  M444.90,848.35L444.90,851.85L461.95,851.85L461.95,859.05L441.50,859.05L441.50,862.55L486.20,862.55L486.20,859.05L466.00,859.05L466.00,851.85L483.50,851.85L483.50,848.35L466.00,848.35L466.00,842.55L481.85,842.55L481.85,820.00L446.50,820.00L446.50,842.55L461.95,842.55L461.95,848.35Z"/>
		<path d="M506.45,835.40L531.20,835.40L531.20,843.45L506.45,843.45Z  M516.75,817.95L516.75,823.00L497.30,823.00L497.30,826.45L516.75,826.45L516.75,832.05L502.80,832.05L502.80,846.85L510.65,846.85C509.60,853.90,507.00,858.40,495.95,860.65C496.75,861.45,497.80,863.10,498.15,864.10C510.30,861.20,513.50,855.60,514.65,846.85L522.10,846.85L522.10,858.25C522.10,862.35,523.35,863.50,528.05,863.50C529.05,863.50,534.95,863.50,536.00,863.50C540.25,863.50,541.30,861.65,541.75,854.10C540.70,853.80,539.10,853.20,538.25,852.55C538.05,859.00,537.75,859.90,535.70,859.90C534.35,859.90,529.45,859.90,528.45,859.90C526.30,859.90,525.95,859.70,525.95,858.20L525.95,846.85L535.05,846.85L535.05,832.05L520.55,832.05L520.55,826.45L540.50,826.45L540.50,823.00L520.55,823.00L520.55,817.95Z"/>
		<path d="M573.80,835.70C570.85,835.70,568.50,838.05,568.50,841.00C568.50,843.95,570.85,846.30,573.80,846.30C576.75,846.30,579.10,843.95,579.10,841.00C579.10,838.05,576.75,835.70,573.80,835.70Z"/>
		<path d="M626.85,818.00L626.85,821.95L608.90,821.95L608.90,825.15L626.85,825.15L626.85,829.10L611.90,829.10L611.90,832.15L626.85,832.15L626.85,836.45L606.35,836.45L606.35,839.65L621.80,839.65C618.70,843.45,613.45,847.55,606.45,850.50C607.35,851.10,608.55,852.30,609.10,853.20C612.20,851.75,614.95,850.10,617.35,848.35C619.50,851.30,622.15,853.80,625.25,855.90C619.45,858.30,612.80,859.85,606.35,860.65C606.95,861.50,607.70,863.00,608.00,864.00C615.20,862.95,622.50,861.05,628.90,858.05C634.75,861.05,641.85,862.95,649.90,863.90C650.40,862.85,651.35,861.30,652.15,860.40C644.85,859.75,638.25,858.30,632.80,855.95C637.55,853.15,641.50,849.55,644.10,844.95L641.65,843.45L640.95,843.65L622.95,843.65C624.30,842.35,625.50,841.00,626.55,839.65L651.20,839.65L651.20,836.45L630.55,836.45L630.55,832.15L646.25,832.15L646.25,829.10L630.55,829.10L630.55,825.15L649.00,825.15L649.00,821.95L630.55,821.95L630.55,818.00Z  M629.05,854.10C625.50,852.15,622.60,849.70,620.45,846.80L638.40,846.80C636.05,849.70,632.80,852.15,629.05,854.10Z"/>
		<path d="M671.45,835.40L696.20,835.40L696.20,843.45L671.45,843.45Z  M681.75,817.95L681.75,823.00L662.30,823.00L662.30,826.45L681.75,826.45L681.75,832.05L667.80,832.05L667.80,846.85L675.65,846.85C674.60,853.90,672.00,858.40,660.95,860.65C661.75,861.45,662.80,863.10,663.15,864.10C675.30,861.20,678.50,855.60,679.65,846.85L687.10,846.85L687.10,858.25C687.10,862.35,688.35,863.50,693.05,863.50C694.05,863.50,699.95,863.50,701.00,863.50C705.25,863.50,706.30,861.65,706.75,854.10C705.70,853.80,704.10,853.20,703.25,852.55C703.05,859.00,702.75,859.90,700.70,859.90C699.35,859.90,694.45,859.90,693.45,859.90C691.30,859.90,690.95,859.70,690.95,858.20L690.95,846.85L700.05,846.85L700.05,832.05L685.55,832.05L685.55,826.45L705.50,826.45L705.50,823.00L685.55,823.00L685.55,817.95Z"/>
		<path d="M718.55,821.25C721.90,822.75,726.00,825.15,728.05,826.90L730.20,823.75C728.10,822.10,723.90,819.85,720.65,818.55Z  M715.90,834.85C719.15,836.25,723.15,838.60,725.15,840.25L727.25,837.15C725.20,835.50,721.10,833.35,717.95,832.05Z  M717.60,860.80L720.75,863.35C723.70,858.70,727.20,852.45,729.85,847.15L727.10,844.70C724.20,850.35,720.25,856.95,717.60,860.80Z  M733.10,862.25C734.45,861.65,736.55,861.30,755.25,858.95C756.25,860.80,757.05,862.55,757.55,863.95L760.85,862.25C759.35,858.35,755.55,852.40,752.00,848.00L749.00,849.45C750.50,851.40,752.05,853.65,753.45,855.90L737.60,857.65C740.70,853.45,743.85,848.10,746.45,842.75L760.65,842.75L760.65,839.20L747.45,839.20L747.45,830.15L758.60,830.15L758.60,826.60L747.45,826.60L747.45,818.00L743.70,818.00L743.70,826.60L732.95,826.60L732.95,830.15L743.70,830.15L743.70,839.20L730.75,839.20L730.75,842.75L741.95,842.75C739.45,848.40,736.10,853.75,735.00,855.25C733.75,857.10,732.80,858.25,731.80,858.50C732.25,859.55,732.90,861.45,733.10,862.25Z"/>
		<path d="M789.80,818.00C789.15,820.05,788.25,822.15,787.00,824.25L771.90,824.25L771.90,827.60L784.75,827.60C781.45,831.85,776.85,835.75,770.60,838.60C771.40,839.30,772.40,840.70,772.85,841.60C777.10,839.55,780.70,837.00,783.65,834.25L783.65,837.20L804.05,837.20L804.05,834.20C807.35,837.40,811.45,840.05,815.75,841.85C816.05,840.80,816.75,839.15,817.35,838.20C811.40,836.20,806.00,832.25,802.70,827.60L815.85,827.60L815.85,824.25L791.30,824.25C792.25,822.40,793.05,820.50,793.70,818.65Z  M783.85,834.05C785.95,832.00,787.75,829.85,789.30,827.60L798.75,827.60C800.10,829.90,801.85,832.05,803.90,834.05Z  M775.15,841.95L775.15,845.15L782.95,845.15C782.10,847.90,781.00,850.85,780.00,853.05L784.00,853.00L803.90,853.00C803.05,857.25,802.15,859.35,801.10,860.15C800.55,860.50,799.90,860.55,798.70,860.55C797.40,860.55,793.85,860.50,790.40,860.15C791.00,861.15,791.50,862.55,791.55,863.60C795.00,863.80,798.30,863.80,799.85,863.75C801.75,863.70,802.85,863.50,803.95,862.55C805.60,861.15,806.80,858.10,807.95,851.55C808.15,851.05,808.25,849.90,808.25,849.90L785.20,849.90L786.85,845.15L812.25,845.15L812.25,841.95Z"/>
		<path d="M836.90,839.20C834.60,844.95,830.70,850.60,826.45,854.20C827.40,854.80,829.05,856.00,829.80,856.65C834.00,852.65,838.15,846.60,840.85,840.25Z  M857.40,841.00C861.20,845.90,865.60,852.55,867.45,856.65L871.10,854.85C869.10,850.70,864.60,844.25,860.75,839.45Z  M838.55,817.95C835.65,825.55,830.85,833.00,825.55,837.70C826.60,838.20,828.40,839.45,829.15,840.15C831.80,837.50,834.40,834.15,836.75,830.40L847.25,830.40L847.25,859.05C847.25,859.90,846.95,860.15,846.05,860.15C845.05,860.20,841.80,860.25,838.40,860.10C839.00,861.25,839.60,862.90,839.80,864.00C844.20,864.00,847.10,863.95,848.80,863.30C850.55,862.70,851.15,861.55,851.15,859.10L851.15,830.40L865.95,830.40C864.70,833.20,863.15,836.05,861.70,838.00L865.00,839.25C867.25,836.35,869.65,831.70,871.35,827.55L868.50,826.50L867.85,826.70L838.90,826.70C840.25,824.25,841.50,821.65,842.55,819.05Z"/>
		<path d="M946.95,820.85C949.90,823.35,953.40,826.85,955.05,829.10L957.95,827.10C956.25,824.85,952.65,821.45,949.65,819.05Z  M938.60,818.70C938.80,824.00,939.15,829.00,939.60,833.60L927.40,835.15L927.95,838.70L940.00,837.20C941.90,852.90,945.90,863.35,954.20,863.95C956.85,864.10,958.85,861.50,959.95,852.85C959.20,852.50,957.55,851.60,956.80,850.85C956.30,856.65,955.50,859.60,954.05,859.55C948.70,859.00,945.40,850.00,943.70,836.70L958.95,834.80L958.40,831.25L943.30,833.15C942.80,828.70,942.50,823.80,942.35,818.70Z  M926.85,818.50C923.55,826.45,918.00,834.10,912.25,839.00C912.90,839.85,914.05,841.75,914.45,842.60C916.75,840.55,919.00,838.05,921.15,835.30L921.15,863.90L925.00,863.90L925.00,829.80C927.05,826.60,928.90,823.15,930.40,819.65Z"/>
		<path d="M973.75,822.50L973.75,835.45C973.75,843.20,973.20,853.90,967.80,861.50C968.70,862.00,970.30,863.30,970.95,864.10C976.70,855.95,977.55,843.80,977.55,835.45L1013.90,835.45L1013.90,831.85L977.55,831.85L977.55,825.65C989.00,824.90,1001.75,823.55,1010.45,821.45L1007.25,818.40C999.55,820.35,985.60,821.80,973.75,822.50Z  M981.80,842.60L981.80,864.05L985.55,864.05L985.55,861.45L1006.30,861.45L1006.30,863.95L1010.25,863.95L1010.25,842.60Z  M985.55,857.95L985.55,846.10L1006.30,846.10L1006.30,857.95Z"/>
		<path d="M1027.40,821.55C1030.15,824.00,1033.65,827.40,1035.20,829.60L1037.95,826.95C1036.20,824.85,1032.70,821.55,1030.00,819.25Z  M1031.20,863.05L1031.20,863.00C1031.90,862.05,1033.30,861.00,1041.60,855.10C1041.20,854.35,1040.65,852.85,1040.40,851.85L1035.20,855.40L1035.20,833.70L1023.50,833.70L1023.50,837.35L1031.50,837.35L1031.50,855.35C1031.50,857.80,1029.95,859.50,1029.05,860.20C1029.75,860.85,1030.80,862.25,1031.20,863.05Z  M1042.15,821.50L1042.15,825.25L1062.00,825.25L1062.00,837.90L1043.10,837.90L1043.10,857.15C1043.10,862.05,1044.90,863.25,1050.50,863.25C1051.75,863.25,1060.70,863.25,1062.00,863.25C1067.45,863.25,1068.75,861.00,1069.30,852.85C1068.20,852.60,1066.60,851.95,1065.65,851.25C1065.40,858.35,1064.90,859.65,1061.80,859.65C1059.85,859.65,1052.25,859.65,1050.75,859.65C1047.55,859.65,1046.95,859.20,1046.95,857.20L1046.95,841.50L1062.00,841.50L1062.00,844.10L1065.75,844.10L1065.75,821.50Z"/>
	</g>
</svg>
